<svg width="441" height="714" viewBox="0 0 441 714" fill="none" xmlns="http://www.w3.org/2000/svg">
<path d="M358.035 47.0174L358.723 211.707L215.936 130.27L358.035 47.0174Z" fill="#307FF4"/>
<path d="M358.521 543.687L213.154 633.459L215.345 460.452L358.521 543.687Z" fill="#307FF4"/>
<path d="M72.9996 377.002L216.971 461.795L216.968 292.966L72.9996 377.002Z" fill="#E2E2E2"/>
<path d="M74.2842 713.854L72.9553 541.003L216.016 460.212L217.293 630.993L74.2842 713.854Z" fill="#2B44A0"/>
<path d="M358.558 543.793L358.663 373.131L215.717 292.351L215.65 460.969L358.558 543.793Z" fill="white"/>
<path d="M216.977 293.083L73.0257 377.118L73.4026 212.4L216.977 293.083Z" fill="#307FF4"/>
<path d="M72.9006 212.098L216.978 129.795L359.134 211.439L216.978 293.082L72.9006 212.098Z" fill="#2B44A0"/>
</svg>
