<svg width="492" height="427" viewBox="0 0 492 427" fill="none" xmlns="http://www.w3.org/2000/svg">
<path d="M0 194C0 86.8567 86.8568 0 194 0H480C486.627 0 492 5.37258 492 12V232.857C492 340 405.143 426.857 298 426.857H12C5.37257 426.857 0 421.485 0 414.857V194Z" fill="url(#paint0_linear_232_4)"/>
<path d="M36.9009 358.243L53.1201 366.31V371.956L33.415 361.038V357.725L36.9009 358.243ZM53.1201 351.617L36.9297 359.799L33.415 360.202V356.86L53.1201 345.971V351.617ZM77.377 335.657L62.6846 381.204H58.3921L73.1133 335.657H77.377ZM100.107 359.396L83.2827 351.416V345.913L104.054 356.803V360.173L100.107 359.396ZM83.2827 366.425L100.136 358.272L104.054 357.667V361.009L83.2827 371.927V366.425Z" fill="white" fill-opacity="0.5"/>
<path d="M417.857 31.7383H423.158V61.2671C423.158 64.4168 422.553 66.9424 421.343 68.8438C420.133 70.7451 418.539 72.1279 416.561 72.9922C414.602 73.8372 412.489 74.2598 410.223 74.2598C407.803 74.2598 405.623 73.8372 403.683 72.9922C401.743 72.1279 400.197 70.7451 399.045 68.8438C397.912 66.9424 397.345 64.4168 397.345 61.2671V31.7383H402.617V61.2671C402.617 63.4565 402.924 65.1659 403.539 66.395C404.173 67.6242 405.056 68.4884 406.189 68.9878C407.342 69.4871 408.686 69.7368 410.223 69.7368C411.778 69.7368 413.123 69.4871 414.256 68.9878C415.408 68.4884 416.292 67.6242 416.906 66.395C417.54 65.1659 417.857 63.4565 417.857 61.2671V31.7383ZM435.113 31.7383L443.064 47.8135L450.958 31.7383H457.123L446.205 52.5093L457.354 73.6836H451.131L443.064 57.2915L434.969 73.6836H428.718L439.896 52.5093L428.948 31.7383H435.113Z" fill="white" fill-opacity="0.5"/>
<path d="M358.07 187.434H363.37V216.963C363.37 220.113 362.765 222.639 361.555 224.54C360.345 226.441 358.751 227.824 356.773 228.688C354.814 229.533 352.702 229.956 350.435 229.956C348.015 229.956 345.836 229.533 343.896 228.688C341.956 227.824 340.41 226.441 339.258 224.54C338.124 222.639 337.558 220.113 337.558 216.963V187.434H342.83V216.963C342.83 219.153 343.137 220.862 343.752 222.091C344.385 223.32 345.269 224.185 346.402 224.684C347.554 225.183 348.899 225.433 350.435 225.433C351.991 225.433 353.335 225.183 354.469 224.684C355.621 224.185 356.504 223.32 357.119 222.091C357.753 220.862 358.07 219.153 358.07 216.963V187.434ZM376.997 187.434V229.38H371.696V187.434H376.997Z" fill="white" fill-opacity="0.5"/>
<path d="M53.3518 196.081V232.081H49.2034V196.081H53.3518ZM52.344 218.44L50.6565 218.37C50.6409 216.636 50.8362 215.034 51.2424 213.565C51.6643 212.081 52.2581 210.792 53.0237 209.698C53.8049 208.604 54.7346 207.761 55.8127 207.167C56.8909 206.558 58.0862 206.253 59.3987 206.253C60.4299 206.253 61.3674 206.425 62.2112 206.769C63.0549 207.097 63.7737 207.628 64.3674 208.362C64.9612 209.097 65.4143 210.05 65.7268 211.222C66.0549 212.378 66.219 213.792 66.219 215.464V232.081H62.0706V215.417C62.0706 214.089 61.9221 213.026 61.6252 212.229C61.344 211.417 60.9065 210.831 60.3127 210.472C59.7346 210.097 59.0002 209.909 58.1096 209.909C57.2971 209.909 56.5393 210.136 55.8362 210.589C55.1331 211.042 54.5159 211.667 53.9846 212.464C53.469 213.261 53.0627 214.175 52.7659 215.206C52.4846 216.222 52.344 217.3 52.344 218.44ZM81.6643 206.722V210.05H69.8284V206.722H81.6643ZM73.6956 200.558H77.844V225.8C77.844 226.659 77.9456 227.308 78.1487 227.745C78.3674 228.183 78.6409 228.472 78.969 228.612C79.2971 228.753 79.6487 228.823 80.0237 228.823C80.3049 228.823 80.6174 228.792 80.9612 228.729C81.3049 228.651 81.5393 228.589 81.6643 228.542L81.6409 232.081C81.3596 232.19 80.9846 232.292 80.5159 232.386C80.0471 232.495 79.4534 232.55 78.7346 232.55C77.844 232.55 77.0159 232.339 76.2502 231.917C75.4846 231.495 74.8674 230.792 74.3987 229.808C73.9299 228.808 73.6956 227.464 73.6956 225.776V200.558ZM90.7581 211.761V232.081H86.6331V206.722H90.5237L90.7581 211.761ZM89.9143 218.44L87.9924 218.37C87.9768 216.636 88.1487 215.034 88.5081 213.565C88.8674 212.081 89.4065 210.792 90.1252 209.698C90.8596 208.604 91.7737 207.761 92.8674 207.167C93.9768 206.558 95.2659 206.253 96.7346 206.253C97.7034 206.253 98.6018 206.425 99.4299 206.769C100.274 207.097 101.008 207.62 101.633 208.339C102.258 209.058 102.742 209.979 103.086 211.104C103.446 212.229 103.625 213.589 103.625 215.183V232.081H99.4768V215.394C99.4768 214.065 99.2971 213.003 98.9377 212.206C98.594 211.409 98.1018 210.831 97.4612 210.472C96.8206 210.097 96.0549 209.909 95.1643 209.909C94.1487 209.909 93.2971 210.136 92.6096 210.589C91.9377 211.042 91.3987 211.667 90.9924 212.464C90.6018 213.261 90.3206 214.175 90.1487 215.206C89.9924 216.222 89.9143 217.3 89.9143 218.44ZM103.578 216.05L100.813 216.94C100.797 215.55 100.969 214.214 101.328 212.933C101.688 211.651 102.219 210.511 102.922 209.511C103.641 208.511 104.531 207.722 105.594 207.144C106.656 206.55 107.891 206.253 109.297 206.253C110.453 206.253 111.477 206.433 112.367 206.792C113.258 207.151 114.008 207.706 114.617 208.456C115.242 209.19 115.711 210.136 116.024 211.292C116.336 212.448 116.492 213.823 116.492 215.417V232.081H112.344V215.37C112.344 213.948 112.164 212.847 111.805 212.065C111.461 211.269 110.969 210.714 110.328 210.401C109.688 210.073 108.922 209.909 108.031 209.909C107.313 209.909 106.672 210.073 106.11 210.401C105.563 210.729 105.102 211.183 104.727 211.761C104.352 212.323 104.063 212.972 103.86 213.706C103.672 214.44 103.578 215.222 103.578 216.05ZM127.203 196.081V232.081H123.078V196.081H127.203Z" fill="white" fill-opacity="0.5"/>
<path d="M141.446 100.717C142.274 100.717 143.024 100.553 143.696 100.225C144.383 99.8811 144.946 99.3499 145.383 98.6311C145.821 97.8967 146.071 96.9436 146.133 95.7717H150.024C149.961 97.4592 149.531 98.9436 148.735 100.225C147.953 101.49 146.922 102.483 145.641 103.201C144.375 103.905 142.977 104.256 141.446 104.256C139.805 104.256 138.375 103.99 137.156 103.459C135.953 102.928 134.953 102.162 134.156 101.162C133.375 100.147 132.789 98.9202 132.399 97.4827C132.008 96.0295 131.813 94.3811 131.813 92.5374V89.678C131.813 87.8342 132.008 86.1936 132.399 84.7561C132.789 83.303 133.375 82.0764 134.156 81.0764C134.953 80.0608 135.953 79.2874 137.156 78.7561C138.375 78.2249 139.805 77.9592 141.446 77.9592C143.164 77.9592 144.649 78.3264 145.899 79.0608C147.164 79.7795 148.149 80.8264 148.852 82.2014C149.571 83.5608 149.961 85.2092 150.024 87.1467H146.133C146.071 85.8967 145.844 84.8577 145.453 84.0295C145.063 83.1858 144.531 82.5608 143.86 82.1545C143.188 81.7327 142.383 81.5217 141.446 81.5217C140.352 81.5217 139.446 81.717 138.727 82.1077C138.024 82.4827 137.469 83.0295 137.063 83.7483C136.656 84.467 136.367 85.3264 136.196 86.3264C136.039 87.3264 135.961 88.4436 135.961 89.678V92.5374C135.961 93.7717 136.039 94.8967 136.196 95.9124C136.367 96.9124 136.649 97.7717 137.039 98.4905C137.446 99.2092 138.008 99.7639 138.727 100.155C139.446 100.53 140.352 100.717 141.446 100.717ZM167.133 97.2952C167.133 96.6545 166.977 96.092 166.664 95.6077C166.352 95.1233 165.836 94.6545 165.117 94.2014C164.414 93.7483 163.461 93.2639 162.258 92.7483C161.086 92.2639 160.031 91.7874 159.094 91.3186C158.172 90.8342 157.391 90.3108 156.75 89.7483C156.11 89.1858 155.617 88.5374 155.274 87.803C154.946 87.053 154.781 86.1702 154.781 85.1545C154.781 84.1389 154.969 83.2014 155.344 82.342C155.735 81.467 156.281 80.7014 156.985 80.0452C157.688 79.3889 158.531 78.8811 159.516 78.5217C160.5 78.1467 161.602 77.9592 162.821 77.9592C164.555 77.9592 166.031 78.2952 167.25 78.967C168.469 79.6389 169.399 80.5608 170.039 81.7327C170.696 82.8889 171.024 84.1936 171.024 85.6467H166.899C166.899 84.9436 166.742 84.2795 166.43 83.6545C166.117 83.0295 165.656 82.5217 165.047 82.1311C164.438 81.7249 163.696 81.5217 162.821 81.5217C161.899 81.5217 161.149 81.6858 160.571 82.0139C159.992 82.342 159.571 82.7717 159.305 83.303C159.055 83.8186 158.93 84.3889 158.93 85.0139C158.93 85.4827 158.992 85.8889 159.117 86.2327C159.258 86.5608 159.492 86.8733 159.821 87.1702C160.149 87.4514 160.594 87.7483 161.156 88.0608C161.735 88.3577 162.469 88.7014 163.36 89.092C165.078 89.7639 166.524 90.4436 167.696 91.1311C168.867 91.8186 169.758 92.6233 170.367 93.5452C170.977 94.467 171.281 95.6077 171.281 96.967C171.281 98.0764 171.078 99.0842 170.672 99.9905C170.281 100.881 169.719 101.647 168.985 102.287C168.25 102.928 167.367 103.42 166.336 103.764C165.321 104.092 164.18 104.256 162.914 104.256C161.008 104.256 159.391 103.881 158.063 103.131C156.75 102.365 155.75 101.373 155.063 100.155C154.391 98.9202 154.055 97.5999 154.055 96.1936H158.203C158.25 97.3811 158.516 98.303 159 98.9592C159.5 99.6155 160.102 100.069 160.805 100.319C161.508 100.569 162.211 100.694 162.914 100.694C163.836 100.694 164.61 100.561 165.235 100.295C165.86 100.014 166.328 99.6155 166.641 99.0999C166.969 98.5842 167.133 97.9827 167.133 97.2952ZM189.024 97.2952C189.024 96.6545 188.867 96.092 188.555 95.6077C188.242 95.1233 187.727 94.6545 187.008 94.2014C186.305 93.7483 185.352 93.2639 184.149 92.7483C182.977 92.2639 181.922 91.7874 180.985 91.3186C180.063 90.8342 179.281 90.3108 178.641 89.7483C178 89.1858 177.508 88.5374 177.164 87.803C176.836 87.053 176.672 86.1702 176.672 85.1545C176.672 84.1389 176.86 83.2014 177.235 82.342C177.625 81.467 178.172 80.7014 178.875 80.0452C179.578 79.3889 180.422 78.8811 181.406 78.5217C182.391 78.1467 183.492 77.9592 184.711 77.9592C186.446 77.9592 187.922 78.2952 189.141 78.967C190.36 79.6389 191.289 80.5608 191.93 81.7327C192.586 82.8889 192.914 84.1936 192.914 85.6467H188.789C188.789 84.9436 188.633 84.2795 188.321 83.6545C188.008 83.0295 187.547 82.5217 186.938 82.1311C186.328 81.7249 185.586 81.5217 184.711 81.5217C183.789 81.5217 183.039 81.6858 182.461 82.0139C181.883 82.342 181.461 82.7717 181.196 83.303C180.946 83.8186 180.821 84.3889 180.821 85.0139C180.821 85.4827 180.883 85.8889 181.008 86.2327C181.149 86.5608 181.383 86.8733 181.711 87.1702C182.039 87.4514 182.485 87.7483 183.047 88.0608C183.625 88.3577 184.36 88.7014 185.25 89.092C186.969 89.7639 188.414 90.4436 189.586 91.1311C190.758 91.8186 191.649 92.6233 192.258 93.5452C192.867 94.467 193.172 95.6077 193.172 96.967C193.172 98.0764 192.969 99.0842 192.563 99.9905C192.172 100.881 191.61 101.647 190.875 102.287C190.141 102.928 189.258 103.42 188.227 103.764C187.211 104.092 186.071 104.256 184.805 104.256C182.899 104.256 181.281 103.881 179.953 103.131C178.641 102.365 177.641 101.373 176.953 100.155C176.281 98.9202 175.946 97.5999 175.946 96.1936H180.094C180.141 97.3811 180.406 98.303 180.891 98.9592C181.391 99.6155 181.992 100.069 182.696 100.319C183.399 100.569 184.102 100.694 184.805 100.694C185.727 100.694 186.5 100.561 187.125 100.295C187.75 100.014 188.219 99.6155 188.531 99.0999C188.86 98.5842 189.024 97.9827 189.024 97.2952Z" fill="white" fill-opacity="0.5"/>
<path d="M262.092 361.624V337.46H266.381V361.624C266.381 363.874 265.99 365.772 265.209 367.319C264.427 368.866 263.342 370.046 261.951 370.858C260.576 371.655 258.99 372.054 257.193 372.054C255.427 372.054 253.849 371.694 252.459 370.975C251.068 370.257 249.974 369.163 249.177 367.694C248.396 366.225 248.006 364.374 248.006 362.14H252.318C252.318 363.577 252.529 364.757 252.951 365.679C253.388 366.6 253.974 367.28 254.709 367.718C255.443 368.155 256.271 368.374 257.193 368.374C258.131 368.374 258.967 368.124 259.701 367.624C260.435 367.108 261.013 366.35 261.435 365.35C261.873 364.335 262.092 363.093 262.092 361.624ZM288.435 362.96C288.435 362.163 288.342 361.46 288.154 360.85C287.967 360.225 287.638 359.663 287.17 359.163C286.701 358.663 286.045 358.186 285.201 357.733C284.357 357.28 283.287 356.819 281.99 356.35C280.584 355.85 279.31 355.296 278.17 354.686C277.029 354.061 276.052 353.35 275.24 352.554C274.443 351.757 273.826 350.843 273.388 349.811C272.951 348.78 272.732 347.6 272.732 346.272C272.732 344.944 272.959 343.718 273.412 342.593C273.881 341.468 274.537 340.491 275.381 339.663C276.24 338.819 277.271 338.163 278.474 337.694C279.677 337.225 281.021 336.991 282.506 336.991C284.724 336.991 286.592 337.483 288.107 338.468C289.638 339.436 290.795 340.71 291.576 342.288C292.357 343.85 292.748 345.522 292.748 347.304H288.435C288.435 346.022 288.224 344.89 287.802 343.905C287.396 342.905 286.756 342.124 285.881 341.561C285.021 340.983 283.896 340.694 282.506 340.694C281.256 340.694 280.224 340.936 279.412 341.421C278.615 341.905 278.021 342.561 277.631 343.39C277.256 344.218 277.068 345.163 277.068 346.225C277.068 346.944 277.193 347.6 277.443 348.194C277.693 348.772 278.076 349.311 278.592 349.811C279.123 350.311 279.779 350.772 280.56 351.194C281.357 351.616 282.295 352.022 283.373 352.413C285.045 352.96 286.474 353.569 287.662 354.241C288.849 354.913 289.818 355.671 290.568 356.515C291.318 357.343 291.865 358.288 292.209 359.35C292.568 360.397 292.748 361.585 292.748 362.913C292.748 364.304 292.513 365.561 292.045 366.686C291.592 367.811 290.927 368.772 290.052 369.569C289.177 370.366 288.123 370.983 286.888 371.421C285.654 371.843 284.263 372.054 282.717 372.054C281.373 372.054 280.052 371.835 278.756 371.397C277.474 370.96 276.31 370.304 275.263 369.429C274.217 368.554 273.381 367.475 272.756 366.194C272.131 364.897 271.818 363.397 271.818 361.694H276.131C276.131 362.866 276.302 363.874 276.646 364.718C276.99 365.546 277.467 366.233 278.076 366.78C278.685 367.327 279.381 367.733 280.162 367.999C280.959 368.249 281.81 368.374 282.717 368.374C283.967 368.374 285.013 368.155 285.857 367.718C286.717 367.28 287.357 366.655 287.779 365.843C288.217 365.03 288.435 364.069 288.435 362.96Z" fill="white" fill-opacity="0.5"/>
<path d="M299.368 93.1107L299.637 157.479L243.829 125.65L299.368 93.1107Z" fill="white"/>
<path d="M299.559 287.233L242.743 322.32L243.599 254.7L299.559 287.233Z" fill="white"/>
<path d="M187.964 222.084L244.235 255.225L244.233 189.239L187.964 222.084Z" fill="#C0C0C0"/>
<path d="M188.467 353.742L187.947 286.183L243.862 254.607L244.361 321.356L188.467 353.742Z" fill="#F1F1F1"/>
<path d="M299.574 287.274L299.615 220.572L243.745 188.999L243.719 254.903L299.574 287.274Z" fill="#DCDCDC"/>
<path d="M244.238 189.285L187.975 222.13L188.122 157.75L244.238 189.285Z" fill="white"/>
<path d="M187.925 157.632L244.237 125.464L299.799 157.374L244.237 189.285L187.925 157.632Z" fill="#F1F1F1"/>
<defs>
<linearGradient id="paint0_linear_232_4" x1="-3.42418e-06" y1="210.794" x2="360.596" y2="210.794" gradientUnits="userSpaceOnUse">
<stop stop-color="#3081F7"/>
<stop offset="1" stop-color="#2A439F"/>
</linearGradient>
</defs>
</svg>
