<svg width="90" height="52" viewBox="0 0 90 52" fill="none" xmlns="http://www.w3.org/2000/svg">
<path d="M2 32C2 15.4315 15.4315 2 32 2H78C83.5229 2 88 6.47715 88 12V20C88 36.5685 74.5685 50 58 50H12C6.47715 50 2 45.5229 2 40V32Z" stroke="url(#paint0_linear_269_6)" stroke-width="4"/>
<path d="M32.5137 34.2808C31.6527 34.2808 30.8628 34.1497 30.144 33.8877C29.4253 33.6182 28.8076 33.2139 28.291 32.6748C27.7744 32.1357 27.3739 31.4582 27.0894 30.6421C26.8049 29.8185 26.6626 28.8527 26.6626 27.7446C26.6626 26.644 26.8086 25.6932 27.1006 24.8921C27.4001 24.091 27.7969 23.4172 28.291 22.8706C28.7852 22.3241 29.3991 21.9048 30.1328 21.6128C30.874 21.3133 31.6676 21.1636 32.5137 21.1636C33.2025 21.1636 33.8651 21.2609 34.5015 21.4556C35.1453 21.6502 35.7181 21.8748 36.2197 22.1294V24.499H36.0962C35.9465 24.3717 35.7518 24.2257 35.5122 24.061C35.2801 23.8963 34.9956 23.7279 34.6587 23.5557C34.3667 23.4059 34.0223 23.2749 33.6255 23.1626C33.2287 23.0503 32.8468 22.9941 32.48 22.9941C31.3869 22.9941 30.5072 23.4097 29.8408 24.2407C29.182 25.0643 28.8525 26.2323 28.8525 27.7446C28.8525 29.2271 29.1707 30.3838 29.8071 31.2148C30.451 32.0384 31.342 32.4502 32.48 32.4502C33.1688 32.4502 33.8239 32.3079 34.4453 32.0234C35.0667 31.7389 35.617 31.3721 36.0962 30.9229H36.2197V33.2925C36.0101 33.3898 35.748 33.5096 35.4336 33.6519C35.1191 33.7866 34.8346 33.8877 34.5801 33.9551C34.2207 34.0599 33.8988 34.1385 33.6143 34.1909C33.3298 34.2508 32.9629 34.2808 32.5137 34.2808ZM43.153 34.3032C42.3144 34.3032 41.5283 34.1909 40.7946 33.9663C40.0683 33.7417 39.4656 33.5021 38.9865 33.2476V30.8779H39.0988C39.2785 31.0202 39.4881 31.1774 39.7277 31.3496C39.9747 31.5218 40.3004 31.7015 40.7047 31.8887C41.0641 32.0534 41.4572 32.1994 41.8839 32.3267C42.3182 32.4539 42.7674 32.5176 43.2316 32.5176C43.5685 32.5176 43.9279 32.4801 44.3097 32.4053C44.6915 32.3229 44.976 32.2218 45.1632 32.1021C45.4253 31.9299 45.6124 31.7464 45.7247 31.5518C45.8445 31.3571 45.9044 31.0651 45.9044 30.6758C45.9044 30.1742 45.7659 29.7961 45.4889 29.5415C45.2194 29.2869 44.7365 29.0736 44.0402 28.9014C43.7706 28.834 43.4188 28.7554 42.9845 28.6655C42.5503 28.5757 42.1497 28.4784 41.7829 28.3735C40.8245 28.0965 40.1282 27.6698 39.694 27.0933C39.2597 26.5093 39.0426 25.8055 39.0426 24.9819C39.0426 23.8514 39.4694 22.9305 40.3229 22.2192C41.1764 21.508 42.3107 21.1523 43.7257 21.1523C44.422 21.1523 45.122 21.2384 45.8258 21.4106C46.5296 21.5828 47.1211 21.8 47.6002 22.062V24.3193H47.4879C46.9489 23.8926 46.3462 23.5557 45.6798 23.3086C45.021 23.0615 44.3546 22.938 43.6808 22.938C42.9845 22.938 42.3968 23.084 41.9176 23.376C41.4385 23.668 41.1989 24.1097 41.1989 24.7012C41.1989 25.2253 41.3411 25.6183 41.6256 25.8804C41.9101 26.1349 42.3668 26.3446 42.9957 26.5093C43.3102 26.5916 43.6583 26.674 44.0402 26.7563C44.4295 26.8312 44.8375 26.9211 45.2643 27.0259C46.1927 27.258 46.889 27.6436 47.3532 28.1826C47.8248 28.7217 48.0607 29.4554 48.0607 30.3838C48.0607 30.9229 47.9521 31.4357 47.735 31.9224C47.5254 32.4015 47.2147 32.8133 46.8029 33.1577C46.3537 33.5321 45.8445 33.8166 45.2755 34.0112C44.714 34.2059 44.0065 34.3032 43.153 34.3032ZM55.0276 34.3032C54.1891 34.3032 53.4029 34.1909 52.6692 33.9663C51.943 33.7417 51.3403 33.5021 50.8611 33.2476V30.8779H50.9734C51.1531 31.0202 51.3627 31.1774 51.6023 31.3496C51.8494 31.5218 52.1751 31.7015 52.5794 31.8887C52.9387 32.0534 53.3318 32.1994 53.7586 32.3267C54.1928 32.4539 54.642 32.5176 55.1062 32.5176C55.4431 32.5176 55.8025 32.4801 56.1844 32.4053C56.5662 32.3229 56.8507 32.2218 57.0379 32.1021C57.2999 31.9299 57.4871 31.7464 57.5994 31.5518C57.7192 31.3571 57.7791 31.0651 57.7791 30.6758C57.7791 30.1742 57.6406 29.7961 57.3636 29.5415C57.094 29.2869 56.6111 29.0736 55.9148 28.9014C55.6453 28.834 55.2934 28.7554 54.8592 28.6655C54.4249 28.5757 54.0244 28.4784 53.6575 28.3735C52.6992 28.0965 52.0029 27.6698 51.5686 27.0933C51.1344 26.5093 50.9173 25.8055 50.9173 24.9819C50.9173 23.8514 51.344 22.9305 52.1975 22.2192C53.0511 21.508 54.1853 21.1523 55.6004 21.1523C56.2967 21.1523 56.9967 21.2384 57.7005 21.4106C58.4042 21.5828 58.9957 21.8 59.4749 22.062V24.3193H59.3626C58.8235 23.8926 58.2208 23.5557 57.5545 23.3086C56.8956 23.0615 56.2293 22.938 55.5554 22.938C54.8592 22.938 54.2714 23.084 53.7923 23.376C53.3131 23.668 53.0735 24.1097 53.0735 24.7012C53.0735 25.2253 53.2158 25.6183 53.5003 25.8804C53.7848 26.1349 54.2415 26.3446 54.8704 26.5093C55.1848 26.5916 55.533 26.674 55.9148 26.7563C56.3041 26.8312 56.7122 26.9211 57.1389 27.0259C58.0673 27.258 58.7636 27.6436 59.2278 28.1826C59.6995 28.7217 59.9353 29.4554 59.9353 30.3838C59.9353 30.9229 59.8268 31.4357 59.6096 31.9224C59.4 32.4015 59.0893 32.8133 58.6775 33.1577C58.2283 33.5321 57.7192 33.8166 57.1502 34.0112C56.5887 34.2059 55.8811 34.3032 55.0276 34.3032Z" fill="url(#paint1_linear_269_6)"/>
<defs>
<linearGradient id="paint0_linear_269_6" x1="5.07215e-08" y1="30.875" x2="87.9157" y2="29.9474" gradientUnits="userSpaceOnUse">
<stop stop-color="#307EF2"/>
<stop offset="1" stop-color="#2B44A0"/>
</linearGradient>
<linearGradient id="paint1_linear_269_6" x1="26" y1="25.5" x2="65" y2="25.5" gradientUnits="userSpaceOnUse">
<stop offset="0.46875" stop-color="#307EF2"/>
<stop offset="0.822917" stop-color="#2B44A0"/>
</linearGradient>
</defs>
</svg>
