<svg width="115" height="52" viewBox="0 0 115 52" fill="none" xmlns="http://www.w3.org/2000/svg">
<path d="M2 32C2 15.4315 15.4315 2 32 2H103C108.523 2 113 6.47715 113 12V20C113 36.5685 99.5685 50 83 50H12C6.47715 50 2 45.5229 2 40V32Z" stroke="url(#paint0_linear_269_13)" stroke-width="4"/>
<path d="M33.1309 18.5469H33.0186C32.8314 18.4795 32.5618 18.4159 32.21 18.356C31.8581 18.2886 31.5436 18.2549 31.2666 18.2549C30.3757 18.2549 29.7393 18.457 29.3574 18.8613C28.9831 19.2581 28.7959 19.9806 28.7959 21.0288V21.4556H32.2886V23.2075H28.8633V34H26.752V23.2075H25.3257V21.4556H26.752V21.04C26.752 19.5277 27.1151 18.3784 27.8413 17.5923C28.5675 16.8062 29.6082 16.4131 30.9634 16.4131C31.3527 16.4131 31.7345 16.4355 32.1089 16.4805C32.4832 16.5179 32.8239 16.5628 33.1309 16.6152V18.5469ZM37.6159 34H35.5045V21.4556H37.6159V34ZM37.7619 19.3555H35.3585V17.1655H37.7619V19.3555ZM49.8723 30.5972V23.7129C49.3483 23.4583 48.8616 23.2786 48.4124 23.1738C47.9707 23.0615 47.5289 23.0054 47.0872 23.0054C46.0165 23.0054 45.1743 23.3984 44.5603 24.1846C43.9464 24.9707 43.6394 26.0975 43.6394 27.5649C43.6394 28.9575 43.8715 30.0169 44.3357 30.7432C44.8074 31.4694 45.5673 31.8325 46.6155 31.8325C47.1621 31.8325 47.7236 31.724 48.3001 31.5068C48.8841 31.2897 49.4082 30.9865 49.8723 30.5972ZM42.7747 36.0103C42.9169 36.0701 43.1266 36.1488 43.4036 36.2461C43.6806 36.3509 43.9951 36.4482 44.347 36.5381C44.7363 36.6354 45.0957 36.714 45.4251 36.7739C45.7545 36.8338 46.1139 36.8638 46.5032 36.8638C47.1546 36.8638 47.7049 36.7777 48.1541 36.6055C48.6108 36.4333 48.9664 36.1937 49.221 35.8867C49.4606 35.5798 49.629 35.2241 49.7263 34.8198C49.8237 34.4155 49.8723 33.9551 49.8723 33.4385V32.3379C49.3033 32.832 48.7456 33.1989 48.199 33.4385C47.6525 33.6706 46.9674 33.7866 46.1438 33.7866C44.7138 33.7866 43.5758 33.255 42.7298 32.1919C41.8837 31.1287 41.4607 29.6014 41.4607 27.6099C41.4607 26.5692 41.6067 25.6483 41.8987 24.8472C42.1907 24.0386 42.5838 23.3535 43.0779 22.792C43.5496 22.2529 44.1074 21.8374 44.7513 21.5454C45.3951 21.2534 46.0615 21.1074 46.7503 21.1074C47.4016 21.1074 47.9632 21.186 48.4348 21.3433C48.914 21.493 49.3932 21.7101 49.8723 21.9946L49.9959 21.4556H51.9837V32.5737C51.9837 34.7 51.5195 36.2611 50.5911 37.2568C49.6627 38.2526 48.2439 38.7505 46.3347 38.7505C45.7208 38.7505 45.0919 38.7018 44.448 38.6045C43.8116 38.5072 43.2164 38.3761 42.6624 38.2114V36.0103H42.7747ZM70.8886 34V26.7451C70.8886 26.1686 70.8661 25.637 70.8212 25.1504C70.7763 24.6562 70.6827 24.2707 70.5404 23.9937C70.3907 23.6942 70.1773 23.4733 69.9003 23.3311C69.6233 23.1888 69.2489 23.1177 68.7773 23.1177C68.343 23.1177 67.8751 23.2524 67.3735 23.522C66.8793 23.784 66.3665 24.1659 65.8349 24.6675C65.8424 24.7948 65.8499 24.9482 65.8573 25.1279C65.8723 25.3001 65.8798 25.506 65.8798 25.7456V34H63.7685V26.7451C63.7685 26.1686 63.746 25.637 63.7011 25.1504C63.6562 24.6562 63.5626 24.2707 63.4203 23.9937C63.2706 23.6942 63.0572 23.4733 62.7802 23.3311C62.5032 23.1888 62.1288 23.1177 61.6571 23.1177C61.2004 23.1177 60.7213 23.2599 60.2196 23.5444C59.718 23.8289 59.2314 24.1921 58.7597 24.6338V34H56.6484V21.4556H58.7597V22.8481C59.3137 22.2941 59.8603 21.8674 60.3993 21.5679C60.9459 21.2609 61.5448 21.1074 62.1962 21.1074C62.9374 21.1074 63.5925 21.2759 64.1615 21.6128C64.738 21.9497 65.176 22.5037 65.4755 23.2749C66.1119 22.5636 66.7333 22.0246 67.3398 21.6577C67.9462 21.2909 68.6051 21.1074 69.3163 21.1074C69.8554 21.1074 70.3458 21.1935 70.7875 21.3657C71.2293 21.5304 71.6148 21.8 71.9443 22.1743C72.2812 22.5562 72.5395 23.0316 72.7192 23.6006C72.9063 24.1696 72.9999 24.8846 72.9999 25.7456V34H70.8886ZM84.5826 30.9116V27.4302C84.0809 27.4751 83.4446 27.5387 82.6734 27.6211C81.9097 27.696 81.292 27.8045 80.8204 27.9468C80.2588 28.119 79.7947 28.3848 79.4278 28.7441C79.0609 29.096 78.8775 29.5902 78.8775 30.2266C78.8775 30.9453 79.0796 31.4881 79.4839 31.855C79.8882 32.2218 80.4797 32.4053 81.2584 32.4053C81.9247 32.4053 82.5274 32.263 83.0665 31.9785C83.6055 31.6865 84.1109 31.3309 84.5826 30.9116ZM84.5826 32.6636C84.4104 32.7909 84.1783 32.9705 83.8863 33.2026C83.6018 33.4272 83.3248 33.6069 83.0552 33.7417C82.6809 33.9364 82.3178 34.0861 81.9659 34.1909C81.6215 34.2957 81.1348 34.3481 80.5059 34.3481C79.9893 34.3481 79.4989 34.2508 79.0347 34.0562C78.5705 33.8615 78.1625 33.5882 77.8106 33.2363C77.4737 32.8919 77.2042 32.4689 77.002 31.9673C76.7999 31.4582 76.6988 30.9229 76.6988 30.3613C76.6988 29.4928 76.8822 28.7554 77.2491 28.1489C77.6159 27.535 78.1962 27.0483 78.9898 26.689C79.6936 26.367 80.5246 26.1462 81.483 26.0264C82.4413 25.8991 83.4745 25.8055 84.5826 25.7456V25.3413C84.5826 24.8472 84.5077 24.4504 84.358 24.1509C84.2082 23.8439 83.9986 23.6081 83.7291 23.4434C83.4595 23.2712 83.1301 23.1589 82.7408 23.1064C82.3515 23.0465 81.9509 23.0166 81.5391 23.0166C81.0525 23.0166 80.4797 23.0915 79.8209 23.2412C79.162 23.3835 78.5031 23.5931 77.8443 23.8701H77.7208V21.7251C78.1101 21.6128 78.6679 21.4893 79.3941 21.3545C80.1203 21.2197 80.8391 21.1523 81.5504 21.1523C82.4114 21.1523 83.1376 21.2197 83.7291 21.3545C84.3205 21.4893 84.8521 21.7326 85.3238 22.0845C85.7805 22.4289 86.1212 22.8743 86.3458 23.4209C86.5704 23.9674 86.6827 24.6338 86.6827 25.4199V34H84.5826V32.6636Z" fill="url(#paint1_linear_269_13)"/>
<defs>
<linearGradient id="paint0_linear_269_13" x1="6.48107e-08" y1="30.875" x2="112.329" y2="29.3606" gradientUnits="userSpaceOnUse">
<stop stop-color="#307EF2"/>
<stop offset="1" stop-color="#2B44A0"/>
</linearGradient>
<linearGradient id="paint1_linear_269_13" x1="25" y1="25.5" x2="90" y2="25.5" gradientUnits="userSpaceOnUse">
<stop offset="0.46875" stop-color="#307EF2"/>
<stop offset="0.822917" stop-color="#2B44A0"/>
</linearGradient>
</defs>
</svg>
