<svg width="12" height="12" viewBox="0 0 12 12" fill="none" xmlns="http://www.w3.org/2000/svg">
<path d="M10.5521 1.94626L6.04988 0.0703468C5.90919 0.0234489 5.76849 0 5.6278 0C5.46366 0 5.32296 0.0234489 5.18227 0.0703468L0.680072 1.94626C0.25799 2.13385 5.19675e-05 2.53249 5.19675e-05 2.97802C5.19675e-05 7.64436 2.67323 10.8569 5.18227 11.9121C5.46366 12.0293 5.76849 12.0293 6.04988 11.9121C8.06649 11.0679 11.2555 8.18368 11.2555 2.97802C11.2555 2.53249 10.9742 2.13385 10.5521 1.94626ZM8.79158 4.72512L5.13537 8.14349C4.99468 8.30763 4.73674 8.30763 4.59605 8.14349L2.58614 6.37141C2.44544 6.23072 2.44544 5.99623 2.58614 5.85554L2.87087 5.5708C3.01157 5.43011 3.24606 5.43011 3.38675 5.5708L4.93255 6.91226L8.04608 3.97962C8.18677 3.83893 8.42126 3.83893 8.56195 3.97962L8.79158 4.20924C8.93227 4.34994 8.93227 4.58443 8.79158 4.72512Z" fill="#2B44A0"/>
</svg>
