<svg width="244" height="52" viewBox="0 0 244 52" fill="none" xmlns="http://www.w3.org/2000/svg">
<path d="M2 32C2 15.4315 15.4315 2 32 2H232C237.523 2 242 6.47715 242 12V20C242 36.5685 228.569 50 212 50H12C6.47715 50 2 45.5229 2 40V32Z" stroke="url(#paint0_linear_269_16)" stroke-width="4"/>
<path d="M33.6924 34.3257C32.5094 34.3257 31.4276 34.146 30.4468 33.7866C29.466 33.4272 28.6237 32.8807 27.9199 32.147C27.2161 31.4058 26.6771 30.4886 26.3027 29.3955C25.9284 28.3024 25.7412 27.0446 25.7412 25.6221C25.7412 24.2744 25.9284 23.069 26.3027 22.0059C26.6846 20.9352 27.2274 20.0218 27.9312 19.2656C28.6125 18.5319 29.451 17.9666 30.4468 17.5698C31.4425 17.173 32.5319 16.9746 33.7148 16.9746C34.2764 16.9746 34.8154 17.0158 35.332 17.0981C35.8486 17.1805 36.3428 17.2928 36.8145 17.4351C37.1888 17.5474 37.6043 17.7046 38.061 17.9067C38.5252 18.1014 38.8996 18.2699 39.1841 18.4121V21.0962H38.9932C38.7161 20.8491 38.4279 20.617 38.1284 20.3999C37.8364 20.1753 37.4209 19.9357 36.8818 19.6812C36.4326 19.4565 35.916 19.2694 35.332 19.1196C34.748 18.9699 34.1191 18.895 33.4453 18.895C31.8356 18.895 30.5329 19.5015 29.5371 20.7144C28.5488 21.9272 28.0547 23.5407 28.0547 25.5547C28.0547 26.6777 28.1857 27.6585 28.4478 28.4971C28.7098 29.3356 29.0879 30.0469 29.582 30.6309C30.0612 31.2074 30.6377 31.6491 31.3115 31.9561C31.9928 32.2555 32.7565 32.4053 33.6025 32.4053C34.2314 32.4053 34.8566 32.3604 35.478 32.2705C36.0994 32.1807 36.6235 32.0459 37.0503 31.8662V27.5425H33.187V25.5884H39.2515V32.8882C38.967 33.0155 38.5851 33.1764 38.106 33.3711C37.6343 33.5658 37.1925 33.7192 36.7808 33.8315C36.2342 33.9963 35.7401 34.1198 35.2983 34.2021C34.8566 34.2845 34.3213 34.3257 33.6924 34.3257ZM53.8214 27.7334C53.8214 29.8447 53.3123 31.4769 52.2941 32.6299C51.2759 33.7754 49.9207 34.3481 48.2287 34.3481C46.4842 34.3481 45.1103 33.7567 44.1071 32.5737C43.1113 31.3833 42.6134 29.7699 42.6134 27.7334C42.6134 25.637 43.1263 24.0086 44.152 22.8481C45.1852 21.6877 46.5441 21.1074 48.2287 21.1074C49.9207 21.1074 51.2759 21.6877 52.2941 22.8481C53.3123 24.0011 53.8214 25.6296 53.8214 27.7334ZM51.6427 27.7334C51.6427 26.1087 51.347 24.9033 50.7555 24.1172C50.164 23.3236 49.3218 22.9268 48.2287 22.9268C47.1281 22.9268 46.2783 23.3236 45.6793 24.1172C45.0879 24.9033 44.7921 26.1087 44.7921 27.7334C44.7921 29.3057 45.0879 30.4998 45.6793 31.3159C46.2783 32.1245 47.1281 32.5288 48.2287 32.5288C49.3143 32.5288 50.1528 32.132 50.7443 31.3384C51.3432 30.5373 51.6427 29.3356 51.6427 27.7334ZM67.9197 27.7334C67.9197 29.8447 67.4106 31.4769 66.3924 32.6299C65.3741 33.7754 64.019 34.3481 62.3269 34.3481C60.5825 34.3481 59.2086 33.7567 58.2054 32.5737C57.2096 31.3833 56.7117 29.7699 56.7117 27.7334C56.7117 25.637 57.2246 24.0086 58.2503 22.8481C59.2835 21.6877 60.6424 21.1074 62.3269 21.1074C64.019 21.1074 65.3741 21.6877 66.3924 22.8481C67.4106 24.0011 67.9197 25.6296 67.9197 27.7334ZM65.741 27.7334C65.741 26.1087 65.4453 24.9033 64.8538 24.1172C64.2623 23.3236 63.42 22.9268 62.3269 22.9268C61.2263 22.9268 60.3766 23.3236 59.7776 24.1172C59.1861 24.9033 58.8904 26.1087 58.8904 27.7334C58.8904 29.3057 59.1861 30.4998 59.7776 31.3159C60.3766 32.1245 61.2263 32.5288 62.3269 32.5288C63.4125 32.5288 64.2511 32.132 64.8426 31.3384C65.4415 30.5373 65.741 29.3356 65.741 27.7334ZM79.2441 30.5972V23.7129C78.72 23.4583 78.2333 23.2786 77.7841 23.1738C77.3424 23.0615 76.9006 23.0054 76.4589 23.0054C75.3883 23.0054 74.546 23.3984 73.9321 24.1846C73.3181 24.9707 73.0112 26.0975 73.0112 27.5649C73.0112 28.9575 73.2433 30.0169 73.7074 30.7432C74.1791 31.4694 74.9391 31.8325 75.9872 31.8325C76.5338 31.8325 77.0953 31.724 77.6718 31.5068C78.2558 31.2897 78.7799 30.9865 79.2441 30.5972ZM72.1464 36.0103C72.2887 36.0701 72.4983 36.1488 72.7753 36.2461C73.0523 36.3509 73.3668 36.4482 73.7187 36.5381C74.108 36.6354 74.4674 36.714 74.7968 36.7739C75.1262 36.8338 75.4856 36.8638 75.8749 36.8638C76.5263 36.8638 77.0766 36.7777 77.5258 36.6055C77.9825 36.4333 78.3381 36.1937 78.5927 35.8867C78.8323 35.5798 79.0007 35.2241 79.0981 34.8198C79.1954 34.4155 79.2441 33.9551 79.2441 33.4385V32.3379C78.6751 32.832 78.1173 33.1989 77.5707 33.4385C77.0242 33.6706 76.3391 33.7866 75.5155 33.7866C74.0855 33.7866 72.9475 33.255 72.1015 32.1919C71.2555 31.1287 70.8324 29.6014 70.8324 27.6099C70.8324 26.5692 70.9784 25.6483 71.2704 24.8472C71.5624 24.0386 71.9555 23.3535 72.4496 22.792C72.9213 22.2529 73.4791 21.8374 74.123 21.5454C74.7669 21.2534 75.4332 21.1074 76.122 21.1074C76.7734 21.1074 77.3349 21.186 77.8066 21.3433C78.2857 21.493 78.7649 21.7101 79.2441 21.9946L79.3676 21.4556H81.3554V32.5737C81.3554 34.7 80.8912 36.2611 79.9628 37.2568C79.0344 38.2526 77.6156 38.7505 75.7065 38.7505C75.0925 38.7505 74.4636 38.7018 73.8197 38.6045C73.1834 38.5072 72.5881 38.3761 72.0341 38.2114V36.0103H72.1464ZM88.1763 34H86.065V16.5254H88.1763V34ZM98.3327 34.292C96.3337 34.292 94.7801 33.7305 93.6721 32.6074C92.5715 31.4769 92.0212 29.8747 92.0212 27.8008C92.0212 25.7568 92.5565 24.1322 93.6272 22.9268C94.6978 21.7139 96.0979 21.1074 97.8273 21.1074C98.606 21.1074 99.2948 21.2197 99.8938 21.4443C100.493 21.6689 101.017 22.0208 101.466 22.5C101.915 22.9792 102.26 23.5669 102.499 24.2632C102.739 24.952 102.859 25.798 102.859 26.8013V27.9468H94.1662C94.1662 29.4067 94.5331 30.5223 95.2668 31.2935C96.0005 32.0646 97.015 32.4502 98.3103 32.4502C98.7744 32.4502 99.2274 32.3978 99.6691 32.293C100.118 32.1882 100.523 32.0534 100.882 31.8887C101.264 31.7165 101.586 31.5518 101.848 31.3945C102.11 31.2298 102.327 31.0763 102.499 30.9341H102.623V33.2363C102.376 33.3337 102.069 33.4572 101.702 33.6069C101.335 33.7492 101.006 33.8615 100.714 33.9438C100.302 34.0562 99.9274 34.1423 99.5905 34.2021C99.2611 34.262 98.8418 34.292 98.3327 34.292ZM100.803 26.3296C100.788 25.7606 100.721 25.2702 100.601 24.8584C100.481 24.4466 100.309 24.0985 100.085 23.814C99.8376 23.4995 99.5194 23.2599 99.1301 23.0952C98.7482 22.9305 98.2728 22.8481 97.7038 22.8481C97.1423 22.8481 96.6631 22.9342 96.2663 23.1064C95.877 23.2712 95.5214 23.5145 95.1994 23.8364C94.885 24.1659 94.6454 24.5327 94.4807 24.937C94.316 25.3338 94.2111 25.798 94.1662 26.3296H100.803ZM113.76 34L119.398 17.2778H122.138L127.776 34H125.429L123.913 29.3281H117.522L116.006 34H113.76ZM123.295 27.4302L120.712 19.5464L118.14 27.4302H123.295ZM140.661 34H138.55V26.8574C138.55 26.2809 138.52 25.7456 138.46 25.2515C138.408 24.7498 138.303 24.3493 138.146 24.0498C137.973 23.7354 137.734 23.5033 137.427 23.3535C137.12 23.1963 136.701 23.1177 136.169 23.1177C135.645 23.1177 135.102 23.2599 134.541 23.5444C133.987 23.8215 133.444 24.1846 132.912 24.6338V34H130.801V21.4556H132.912V22.8481C133.541 22.2866 134.163 21.8561 134.776 21.5566C135.39 21.2572 136.038 21.1074 136.719 21.1074C137.955 21.1074 138.921 21.5155 139.617 22.3315C140.313 23.1401 140.661 24.3156 140.661 25.8579V34ZM152.244 30.9116V27.4302C151.742 27.4751 151.106 27.5387 150.335 27.6211C149.571 27.696 148.953 27.8045 148.482 27.9468C147.92 28.119 147.456 28.3848 147.089 28.7441C146.722 29.096 146.539 29.5902 146.539 30.2266C146.539 30.9453 146.741 31.4881 147.145 31.855C147.55 32.2218 148.141 32.4053 148.92 32.4053C149.586 32.4053 150.189 32.263 150.728 31.9785C151.267 31.6865 151.772 31.3309 152.244 30.9116ZM152.244 32.6636C152.072 32.7909 151.84 32.9705 151.548 33.2026C151.263 33.4272 150.986 33.6069 150.717 33.7417C150.342 33.9364 149.979 34.0861 149.627 34.1909C149.283 34.2957 148.796 34.3481 148.167 34.3481C147.651 34.3481 147.16 34.2508 146.696 34.0562C146.232 33.8615 145.824 33.5882 145.472 33.2363C145.135 32.8919 144.865 32.4689 144.663 31.9673C144.461 31.4582 144.36 30.9229 144.36 30.3613C144.36 29.4928 144.544 28.7554 144.91 28.1489C145.277 27.535 145.858 27.0483 146.651 26.689C147.355 26.367 148.186 26.1462 149.144 26.0264C150.103 25.8991 151.136 25.8055 152.244 25.7456V25.3413C152.244 24.8472 152.169 24.4504 152.019 24.1509C151.87 23.8439 151.66 23.6081 151.39 23.4434C151.121 23.2712 150.791 23.1589 150.402 23.1064C150.013 23.0465 149.612 23.0166 149.2 23.0166C148.714 23.0166 148.141 23.0915 147.482 23.2412C146.823 23.3835 146.164 23.5931 145.506 23.8701H145.382V21.7251C145.771 21.6128 146.329 21.4893 147.055 21.3545C147.782 21.2197 148.5 21.1523 149.212 21.1523C150.073 21.1523 150.799 21.2197 151.39 21.3545C151.982 21.4893 152.513 21.7326 152.985 22.0845C153.442 22.4289 153.782 22.8743 154.007 23.4209C154.232 23.9674 154.344 24.6338 154.344 25.4199V34H152.244V32.6636ZM161.086 34H158.975V16.5254H161.086V34ZM175.656 21.4556L168.907 38.627H166.649L168.896 33.3936L164.336 21.4556H166.616L170.041 30.7432L173.455 21.4556H175.656ZM182.657 34.2471C181.504 34.2471 180.605 33.9214 179.962 33.27C179.318 32.6112 178.996 31.5742 178.996 30.1592V23.2075H177.57V21.4556H178.996V17.8506H181.107V21.4556H184.993V23.2075H181.107V29.1709C181.107 29.8073 181.118 30.2977 181.141 30.6421C181.163 30.9865 181.249 31.3084 181.399 31.6079C181.526 31.87 181.732 32.0684 182.017 32.2031C182.301 32.3304 182.687 32.394 183.174 32.394C183.518 32.394 183.851 32.3454 184.173 32.248C184.495 32.1432 184.727 32.0571 184.869 31.9897H184.993V33.8877C184.596 34 184.192 34.0861 183.78 34.146C183.376 34.2134 183.001 34.2471 182.657 34.2471ZM190.331 34H188.22V21.4556H190.331V34ZM190.477 19.3555H188.074V17.1655H190.477V19.3555ZM200.027 34.2808C199.166 34.2808 198.376 34.1497 197.658 33.8877C196.939 33.6182 196.321 33.2139 195.805 32.6748C195.288 32.1357 194.887 31.4582 194.603 30.6421C194.318 29.8185 194.176 28.8527 194.176 27.7446C194.176 26.644 194.322 25.6932 194.614 24.8921C194.914 24.091 195.311 23.4172 195.805 22.8706C196.299 22.3241 196.913 21.9048 197.646 21.6128C198.388 21.3133 199.181 21.1636 200.027 21.1636C200.716 21.1636 201.379 21.2609 202.015 21.4556C202.659 21.6502 203.232 21.8748 203.733 22.1294V24.499H203.61C203.46 24.3717 203.265 24.2257 203.026 24.061C202.794 23.8963 202.509 23.7279 202.172 23.5557C201.88 23.4059 201.536 23.2749 201.139 23.1626C200.742 23.0503 200.36 22.9941 199.994 22.9941C198.901 22.9941 198.021 23.4097 197.354 24.2407C196.696 25.0643 196.366 26.2323 196.366 27.7446C196.366 29.2271 196.684 30.3838 197.321 31.2148C197.965 32.0384 198.856 32.4502 199.994 32.4502C200.682 32.4502 201.338 32.3079 201.959 32.0234C202.58 31.7389 203.131 31.3721 203.61 30.9229H203.733V33.2925C203.524 33.3898 203.262 33.5096 202.947 33.6519C202.633 33.7866 202.348 33.8877 202.094 33.9551C201.734 34.0599 201.412 34.1385 201.128 34.1909C200.843 34.2508 200.477 34.2808 200.027 34.2808ZM210.667 34.3032C209.828 34.3032 209.042 34.1909 208.308 33.9663C207.582 33.7417 206.979 33.5021 206.5 33.2476V30.8779H206.612C206.792 31.0202 207.002 31.1774 207.241 31.3496C207.488 31.5218 207.814 31.7015 208.218 31.8887C208.578 32.0534 208.971 32.1994 209.398 32.3267C209.832 32.4539 210.281 32.5176 210.745 32.5176C211.082 32.5176 211.441 32.4801 211.823 32.4053C212.205 32.3229 212.49 32.2218 212.677 32.1021C212.939 31.9299 213.126 31.7464 213.238 31.5518C213.358 31.3571 213.418 31.0651 213.418 30.6758C213.418 30.1742 213.28 29.7961 213.003 29.5415C212.733 29.2869 212.25 29.0736 211.554 28.9014C211.284 28.834 210.932 28.7554 210.498 28.6655C210.064 28.5757 209.663 28.4784 209.296 28.3735C208.338 28.0965 207.642 27.6698 207.208 27.0933C206.773 26.5093 206.556 25.8055 206.556 24.9819C206.556 23.8514 206.983 22.9305 207.837 22.2192C208.69 21.508 209.824 21.1523 211.239 21.1523C211.936 21.1523 212.636 21.2384 213.339 21.4106C214.043 21.5828 214.635 21.8 215.114 22.062V24.3193H215.002C214.462 23.8926 213.86 23.5557 213.193 23.3086C212.535 23.0615 211.868 22.938 211.194 22.938C210.498 22.938 209.91 23.084 209.431 23.376C208.952 23.668 208.712 24.1097 208.712 24.7012C208.712 25.2253 208.855 25.6183 209.139 25.8804C209.424 26.1349 209.88 26.3446 210.509 26.5093C210.824 26.5916 211.172 26.674 211.554 26.7563C211.943 26.8312 212.351 26.9211 212.778 27.0259C213.706 27.258 214.403 27.6436 214.867 28.1826C215.338 28.7217 215.574 29.4554 215.574 30.3838C215.574 30.9229 215.466 31.4357 215.249 31.9224C215.039 32.4015 214.728 32.8133 214.316 33.1577C213.867 33.5321 213.358 33.8166 212.789 34.0112C212.228 34.2059 211.52 34.3032 210.667 34.3032Z" fill="url(#paint1_linear_269_16)"/>
<defs>
<linearGradient id="paint0_linear_269_16" x1="1.37511e-07" y1="30.875" x2="238.181" y2="24.062" gradientUnits="userSpaceOnUse">
<stop stop-color="#307EF2"/>
<stop offset="1" stop-color="#2B44A0"/>
</linearGradient>
<linearGradient id="paint1_linear_269_16" x1="25" y1="25.5" x2="220" y2="25.5" gradientUnits="userSpaceOnUse">
<stop offset="0.46875" stop-color="#307EF2"/>
<stop offset="0.822917" stop-color="#2B44A0"/>
</linearGradient>
</defs>
</svg>
