<svg width="103" height="52" viewBox="0 0 103 52" fill="none" xmlns="http://www.w3.org/2000/svg">
<path d="M32 2H91C96.5229 2 101 6.47715 101 12V20C101 36.5685 87.5685 50 71 50H12C6.47715 50 2 45.5228 2 40V32C2 15.4315 15.4315 2 32 2Z" stroke="url(#paint0_linear_269_5)" stroke-width="4"/>
<path d="M35.3877 34H33.2764V26.8574C33.2764 26.2809 33.2464 25.7456 33.1865 25.2515C33.1341 24.7498 33.0293 24.3493 32.8721 24.0498C32.6999 23.7354 32.4603 23.5033 32.1533 23.3535C31.8464 23.1963 31.4271 23.1177 30.8955 23.1177C30.3714 23.1177 29.8286 23.2599 29.2671 23.5444C28.7131 23.8215 28.1702 24.1846 27.6387 24.6338V34H25.5273V16.5254H27.6387V22.8481C28.2676 22.2866 28.889 21.8561 29.5029 21.5566C30.1169 21.2572 30.7645 21.1074 31.4458 21.1074C32.6812 21.1074 33.647 21.5155 34.3433 22.3315C35.0396 23.1401 35.3877 24.3156 35.3877 25.8579V34ZM43.7584 34.2471C42.6054 34.2471 41.707 33.9214 41.0631 33.27C40.4192 32.6112 40.0973 31.5742 40.0973 30.1592V23.2075H38.671V21.4556H40.0973V17.8506H42.2086V21.4556H46.0944V23.2075H42.2086V29.1709C42.2086 29.8073 42.2199 30.2977 42.2423 30.6421C42.2648 30.9865 42.3509 31.3084 42.5006 31.6079C42.6279 31.87 42.8338 32.0684 43.1183 32.2031C43.4028 32.3304 43.7884 32.394 44.275 32.394C44.6194 32.394 44.9526 32.3454 45.2746 32.248C45.5965 32.1432 45.8286 32.0571 45.9708 31.9897H46.0944V33.8877C45.6976 34 45.2933 34.0861 44.8815 34.146C44.4772 34.2134 44.1028 34.2471 43.7584 34.2471ZM63.5169 34V26.7451C63.5169 26.1686 63.4944 25.637 63.4495 25.1504C63.4046 24.6562 63.311 24.2707 63.1687 23.9937C63.019 23.6942 62.8056 23.4733 62.5286 23.3311C62.2516 23.1888 61.8772 23.1177 61.4055 23.1177C60.9713 23.1177 60.5034 23.2524 60.0017 23.522C59.5076 23.784 58.9947 24.1659 58.4632 24.6675C58.4707 24.7948 58.4781 24.9482 58.4856 25.1279C58.5006 25.3001 58.5081 25.506 58.5081 25.7456V34H56.3968V26.7451C56.3968 26.1686 56.3743 25.637 56.3294 25.1504C56.2845 24.6562 56.1909 24.2707 56.0486 23.9937C55.8989 23.6942 55.6855 23.4733 55.4085 23.3311C55.1315 23.1888 54.7571 23.1177 54.2854 23.1177C53.8287 23.1177 53.3496 23.2599 52.8479 23.5444C52.3463 23.8289 51.8596 24.1921 51.388 24.6338V34H49.2766V21.4556H51.388V22.8481C51.942 22.2941 52.4886 21.8674 53.0276 21.5679C53.5742 21.2609 54.1731 21.1074 54.8245 21.1074C55.5657 21.1074 56.2208 21.2759 56.7898 21.6128C57.3663 21.9497 57.8043 22.5037 58.1038 23.2749C58.7402 22.5636 59.3616 22.0246 59.968 21.6577C60.5745 21.2909 61.2333 21.1074 61.9446 21.1074C62.4837 21.1074 62.9741 21.1935 63.4158 21.3657C63.8575 21.5304 64.2431 21.8 64.5725 22.1743C64.9095 22.5562 65.1678 23.0316 65.3474 23.6006C65.5346 24.1696 65.6282 24.8846 65.6282 25.7456V34H63.5169ZM72.3593 34H70.248V16.5254H72.3593V34Z" fill="url(#paint1_linear_269_5)"/>
<defs>
<linearGradient id="paint0_linear_269_5" x1="5.80479e-08" y1="30.875" x2="100.611" y2="29.6601" gradientUnits="userSpaceOnUse">
<stop stop-color="#307EF2"/>
<stop offset="1" stop-color="#2B44A0"/>
</linearGradient>
<linearGradient id="paint1_linear_269_5" x1="24" y1="25.5" x2="78" y2="25.5" gradientUnits="userSpaceOnUse">
<stop offset="0.46875" stop-color="#307EF2"/>
<stop offset="0.822917" stop-color="#2B44A0"/>
</linearGradient>
</defs>
</svg>
