<svg width="69" height="52" viewBox="0 0 69 52" fill="none" xmlns="http://www.w3.org/2000/svg">
<path d="M2 32C2 15.4315 15.4315 2 32 2H57C62.5228 2 67 6.47715 67 12V20C67 36.5685 53.5685 50 37 50H12C6.47715 50 2 45.5229 2 40V32Z" stroke="url(#paint0_linear_269_8)" stroke-width="4"/>
<path d="M29.9526 34.3594C29.9526 35.7894 29.5671 36.8787 28.7959 37.6274C28.0322 38.3761 26.9766 38.7505 25.6289 38.7505C25.3968 38.7505 25.1385 38.7393 24.854 38.7168C24.562 38.6943 24.2738 38.6606 23.9893 38.6157V36.729H24.1128C24.2775 36.7664 24.4609 36.8001 24.6631 36.8301C24.8577 36.8675 25.0449 36.8862 25.2246 36.8862C25.7861 36.8862 26.2466 36.8151 26.606 36.6729C26.9728 36.5381 27.2461 36.321 27.4258 36.0215C27.5905 35.752 27.6991 35.4113 27.7515 34.9995C27.8114 34.5877 27.8413 34.0861 27.8413 33.4946V23.2075H25.5728V21.4556H29.9526V34.3594ZM29.9639 19.3555H27.5605V17.1655H29.9639V19.3555ZM38.0202 34.3032C37.1816 34.3032 36.3955 34.1909 35.6618 33.9663C34.9355 33.7417 34.3328 33.5021 33.8537 33.2476V30.8779H33.966C34.1456 31.0202 34.3553 31.1774 34.5949 31.3496C34.8419 31.5218 35.1676 31.7015 35.5719 31.8887C35.9313 32.0534 36.3244 32.1994 36.7511 32.3267C37.1854 32.4539 37.6346 32.5176 38.0988 32.5176C38.4357 32.5176 38.7951 32.4801 39.1769 32.4053C39.5587 32.3229 39.8432 32.2218 40.0304 32.1021C40.2925 31.9299 40.4796 31.7464 40.5919 31.5518C40.7117 31.3571 40.7716 31.0651 40.7716 30.6758C40.7716 30.1742 40.6331 29.7961 40.3561 29.5415C40.0866 29.2869 39.6037 29.0736 38.9074 28.9014C38.6378 28.834 38.2859 28.7554 37.8517 28.6655C37.4175 28.5757 37.0169 28.4784 36.65 28.3735C35.6917 28.0965 34.9954 27.6698 34.5612 27.0933C34.1269 26.5093 33.9098 25.8055 33.9098 24.9819C33.9098 23.8514 34.3366 22.9305 35.1901 22.2192C36.0436 21.508 37.1779 21.1523 38.5929 21.1523C39.2892 21.1523 39.9892 21.2384 40.693 21.4106C41.3968 21.5828 41.9883 21.8 42.4674 22.062V24.3193H42.3551C41.8161 23.8926 41.2134 23.5557 40.547 23.3086C39.8882 23.0615 39.2218 22.938 38.548 22.938C37.8517 22.938 37.264 23.084 36.7848 23.376C36.3056 23.668 36.0661 24.1097 36.0661 24.7012C36.0661 25.2253 36.2083 25.6183 36.4928 25.8804C36.7773 26.1349 37.234 26.3446 37.8629 26.5093C38.1774 26.5916 38.5255 26.674 38.9074 26.7563C39.2967 26.8312 39.7047 26.9211 40.1315 27.0259C41.0599 27.258 41.7562 27.6436 42.2204 28.1826C42.692 28.7217 42.9279 29.4554 42.9279 30.3838C42.9279 30.9229 42.8193 31.4357 42.6022 31.9224C42.3926 32.4015 42.0818 32.8133 41.6701 33.1577C41.2208 33.5321 40.7117 33.8166 40.1427 34.0112C39.5812 34.2059 38.8737 34.3032 38.0202 34.3032Z" fill="url(#paint1_linear_269_8)"/>
<defs>
<linearGradient id="paint0_linear_269_8" x1="3.88864e-08" y1="30.875" x2="67.4051" y2="30.3298" gradientUnits="userSpaceOnUse">
<stop stop-color="#307EF2"/>
<stop offset="1" stop-color="#2B44A0"/>
</linearGradient>
<linearGradient id="paint1_linear_269_8" x1="25" y1="27.5" x2="44" y2="27.5" gradientUnits="userSpaceOnUse">
<stop offset="0.46875" stop-color="#307EF2"/>
<stop offset="0.822917" stop-color="#2B44A0"/>
</linearGradient>
</defs>
</svg>
