<svg width="108" height="90" viewBox="0 0 108 90" fill="none" xmlns="http://www.w3.org/2000/svg">
<path d="M54.5 2.5H85.5V33.5C85.5 50.6208 71.6208 64.5 54.5 64.5H23.5V33.5C23.5 16.3792 37.3792 2.5 54.5 2.5Z" stroke="#2B44A0" stroke-width="5"/>
<path d="M54.5 2.5H85.5V33.5C85.5 50.6208 71.6208 64.5 54.5 64.5H23.5V33.5C23.5 16.3792 37.3792 2.5 54.5 2.5Z" stroke="url(#paint0_linear_232_2)" stroke-width="5"/>
<path d="M7.75391 83.4062C7.75391 83.0742 7.71484 82.7812 7.63672 82.5273C7.55859 82.2669 7.42188 82.0326 7.22656 81.8242C7.03125 81.6159 6.75781 81.4173 6.40625 81.2285C6.05469 81.0397 5.60872 80.8477 5.06836 80.6523C4.48242 80.444 3.95182 80.2129 3.47656 79.959C3.0013 79.6986 2.5944 79.4023 2.25586 79.0703C1.92383 78.7383 1.66667 78.3574 1.48438 77.9277C1.30208 77.498 1.21094 77.0065 1.21094 76.4531C1.21094 75.8997 1.30534 75.3887 1.49414 74.9199C1.68945 74.4512 1.96289 74.0443 2.31445 73.6992C2.67253 73.3477 3.10221 73.0742 3.60352 72.8789C4.10482 72.6836 4.66471 72.5859 5.2832 72.5859C6.20768 72.5859 6.98568 72.791 7.61719 73.2012C8.25521 73.6048 8.73698 74.1354 9.0625 74.793C9.38802 75.444 9.55078 76.1406 9.55078 76.8828H7.75391C7.75391 76.349 7.66602 75.877 7.49023 75.4668C7.32096 75.0501 7.05404 74.7246 6.68945 74.4902C6.33138 74.2493 5.86263 74.1289 5.2832 74.1289C4.76237 74.1289 4.33268 74.2298 3.99414 74.4316C3.66211 74.6335 3.41471 74.9069 3.25195 75.252C3.0957 75.597 3.01758 75.9909 3.01758 76.4336C3.01758 76.7331 3.06966 77.0065 3.17383 77.2539C3.27799 77.4948 3.4375 77.7194 3.65234 77.9277C3.8737 78.1361 4.14714 78.3281 4.47266 78.5039C4.80469 78.6797 5.19531 78.849 5.64453 79.0117C6.34115 79.2396 6.93685 79.4935 7.43164 79.7734C7.92643 80.0534 8.33008 80.3691 8.64258 80.7207C8.95508 81.0658 9.18294 81.4596 9.32617 81.9023C9.47591 82.3385 9.55078 82.8333 9.55078 83.3867C9.55078 83.9661 9.45312 84.4902 9.25781 84.959C9.06901 85.4277 8.79232 85.8281 8.42773 86.1602C8.06315 86.4922 7.6237 86.7493 7.10938 86.9316C6.59505 87.1074 6.01562 87.1953 5.37109 87.1953C4.8112 87.1953 4.26107 87.1042 3.7207 86.9219C3.18685 86.7396 2.70182 86.4661 2.26562 86.1016C1.82943 85.737 1.48112 85.2878 1.2207 84.7539C0.960286 84.2135 0.830078 83.5885 0.830078 82.8789H2.62695C2.62695 83.3672 2.69857 83.7871 2.8418 84.1387C2.98503 84.4837 3.18359 84.7702 3.4375 84.998C3.69141 85.2259 3.98112 85.3952 4.30664 85.5059C4.63867 85.61 4.99349 85.6621 5.37109 85.6621C5.89193 85.6621 6.32812 85.571 6.67969 85.3887C7.03776 85.2064 7.30469 84.946 7.48047 84.6074C7.66276 84.2689 7.75391 83.8685 7.75391 83.4062ZM13.7012 72.7812V87H11.9043V72.7812H13.7012ZM20.8496 72.7812L15.957 79.4121L13.0957 82.8594L12.7734 80.8477L14.873 78.0938L18.7012 72.7812H20.8496ZM19.0625 87L14.873 80.0664L15.9375 78.5723L21.2012 87H19.0625ZM24.6973 72.7812V87H22.9004V72.7812H24.6973ZM35.1953 85.4668V87H29.2969V85.4668H35.1953ZM29.6191 72.7812V87H27.8223V72.7812H29.6191ZM44.707 85.4668V87H38.8086V85.4668H44.707ZM39.1309 72.7812V87H37.334V72.7812H39.1309ZM53.0664 83.4062C53.0664 83.0742 53.0273 82.7812 52.9492 82.5273C52.8711 82.2669 52.7344 82.0326 52.5391 81.8242C52.3438 81.6159 52.0703 81.4173 51.7188 81.2285C51.3672 81.0397 50.9212 80.8477 50.3809 80.6523C49.7949 80.444 49.2643 80.2129 48.7891 79.959C48.3138 79.6986 47.9069 79.4023 47.5684 79.0703C47.2363 78.7383 46.9792 78.3574 46.7969 77.9277C46.6146 77.498 46.5234 77.0065 46.5234 76.4531C46.5234 75.8997 46.6178 75.3887 46.8066 74.9199C47.002 74.4512 47.2754 74.0443 47.627 73.6992C47.985 73.3477 48.4147 73.0742 48.916 72.8789C49.4173 72.6836 49.9772 72.5859 50.5957 72.5859C51.5202 72.5859 52.2982 72.791 52.9297 73.2012C53.5677 73.6048 54.0495 74.1354 54.375 74.793C54.7005 75.444 54.8633 76.1406 54.8633 76.8828H53.0664C53.0664 76.349 52.9785 75.877 52.8027 75.4668C52.6335 75.0501 52.3665 74.7246 52.002 74.4902C51.6439 74.2493 51.1751 74.1289 50.5957 74.1289C50.0749 74.1289 49.6452 74.2298 49.3066 74.4316C48.9746 74.6335 48.7272 74.9069 48.5645 75.252C48.4082 75.597 48.3301 75.9909 48.3301 76.4336C48.3301 76.7331 48.3822 77.0065 48.4863 77.2539C48.5905 77.4948 48.75 77.7194 48.9648 77.9277C49.1862 78.1361 49.4596 78.3281 49.7852 78.5039C50.1172 78.6797 50.5078 78.849 50.957 79.0117C51.6536 79.2396 52.2493 79.4935 52.7441 79.7734C53.2389 80.0534 53.6426 80.3691 53.9551 80.7207C54.2676 81.0658 54.4954 81.4596 54.6387 81.9023C54.7884 82.3385 54.8633 82.8333 54.8633 83.3867C54.8633 83.9661 54.7656 84.4902 54.5703 84.959C54.3815 85.4277 54.1048 85.8281 53.7402 86.1602C53.3757 86.4922 52.9362 86.7493 52.4219 86.9316C51.9076 87.1074 51.3281 87.1953 50.6836 87.1953C50.1237 87.1953 49.5736 87.1042 49.0332 86.9219C48.4993 86.7396 48.0143 86.4661 47.5781 86.1016C47.1419 85.737 46.7936 85.2878 46.5332 84.7539C46.2728 84.2135 46.1426 83.5885 46.1426 82.8789H47.9395C47.9395 83.3672 48.0111 83.7871 48.1543 84.1387C48.2975 84.4837 48.4961 84.7702 48.75 84.998C49.0039 85.2259 49.2936 85.3952 49.6191 85.5059C49.9512 85.61 50.306 85.6621 50.6836 85.6621C51.2044 85.6621 51.6406 85.571 51.9922 85.3887C52.3503 85.2064 52.6172 84.946 52.793 84.6074C52.9753 84.2689 53.0664 83.8685 53.0664 83.4062ZM64.8633 85.4668V87H58.6914V85.4668H64.8633ZM59.0137 72.7812V87H57.2168V72.7812H59.0137ZM64.0332 78.8945V80.4277H58.6914V78.8945H64.0332ZM64.7656 72.7812V74.3242H58.6914V72.7812H64.7656ZM76.4551 72.7812V87H74.6484L68.9551 76.0332V87H67.1582V72.7812H68.9551L74.6777 83.7773V72.7812H76.4551ZM88.4668 79.9199V85.2227C88.3105 85.431 88.0729 85.6914 87.7539 86.0039C87.4414 86.3164 87.002 86.5931 86.4355 86.834C85.8691 87.0749 85.127 87.1953 84.209 87.1953C83.4733 87.1953 82.7995 87.0716 82.1875 86.8242C81.582 86.5768 81.0579 86.2057 80.6152 85.7109C80.179 85.2096 79.8405 84.5879 79.5996 83.8457C79.3587 83.097 79.2383 82.2214 79.2383 81.2188V78.5527C79.2383 77.5566 79.3392 76.6842 79.541 75.9355C79.7428 75.1868 80.0423 74.5651 80.4395 74.0703C80.8431 73.5755 81.3411 73.2044 81.9336 72.957C82.5326 72.7096 83.2292 72.5859 84.0234 72.5859C84.9414 72.5859 85.7227 72.7585 86.3672 73.1035C87.0117 73.4486 87.5098 73.9466 87.8613 74.5977C88.2194 75.2487 88.4212 76.0299 88.4668 76.9414H86.6699C86.6243 76.3555 86.5007 75.8542 86.2988 75.4375C86.097 75.0143 85.8105 74.6921 85.4395 74.4707C85.0684 74.2428 84.5964 74.1289 84.0234 74.1289C83.4766 74.1289 83.0143 74.2201 82.6367 74.4023C82.2591 74.5846 81.9499 74.8581 81.709 75.2227C81.4746 75.5872 81.3021 76.0462 81.1914 76.5996C81.0872 77.153 81.0352 77.7975 81.0352 78.5332V81.2188C81.0352 81.974 81.11 82.6315 81.2598 83.1914C81.4095 83.7513 81.6211 84.2135 81.8945 84.5781C82.1745 84.9427 82.5098 85.2161 82.9004 85.3984C83.291 85.5742 83.7305 85.6621 84.2188 85.6621C84.7721 85.6621 85.2083 85.6035 85.5273 85.4863C85.8464 85.3691 86.0905 85.2357 86.2598 85.0859C86.4355 84.9362 86.5755 84.8158 86.6797 84.7246V81.4434H84.0723V79.9199H88.4668ZM93.252 72.7812V87H91.4551V72.7812H93.252ZM105.674 72.7812V87H103.867L98.1738 76.0332V87H96.377V72.7812H98.1738L103.896 83.7773V72.7812H105.674Z" fill="#2B44A0"/>
<path d="M63.3853 12.2023L63.4322 23.4192L53.7071 17.8726L63.3853 12.2023Z" fill="#307FF4"/>
<path d="M63.4184 46.03L53.5176 52.1443L53.6668 40.3609L63.4184 46.03Z" fill="#307FF4"/>
<path d="M43.9718 34.6773L53.7776 40.4525L53.7774 28.9537L43.9718 34.6773Z" fill="#E2E2E2"/>
<path d="M44.0593 57.6199L43.9688 45.8472L53.7126 40.3446L53.7995 51.9763L44.0593 57.6199Z" fill="#2B44A0"/>
<path d="M63.4209 46.0372L63.4281 34.4136L53.6922 28.9118L53.6876 40.3962L63.4209 46.0372Z" fill="white"/>
<path d="M53.778 28.9615L43.9736 34.685L43.9993 23.4662L53.778 28.9615Z" fill="#307FF4"/>
<path d="M43.9651 23.4458L53.778 17.8402L63.4602 23.4009L53.778 28.9615L43.9651 23.4458Z" fill="#2B44A0"/>
<defs>
<linearGradient id="paint0_linear_232_2" x1="54.5" y1="0" x2="54.5" y2="67" gradientUnits="userSpaceOnUse">
<stop stop-color="#307BEF"/>
<stop offset="1" stop-color="#2B44A0"/>
</linearGradient>
</defs>
</svg>
