<svg width="93" height="52" viewBox="0 0 93 52" fill="none" xmlns="http://www.w3.org/2000/svg">
<path d="M2 32C2 15.4315 15.4315 2 32 2H81C86.5229 2 91 6.47715 91 12V20C91 36.5685 77.5685 50 61 50H12C6.47715 50 2 45.5229 2 40V32Z" stroke="url(#paint0_linear_269_9)" stroke-width="4"/>
<path d="M37.0503 27.3965C37.0503 29.4854 36.5487 31.1512 35.5454 32.394C34.5496 33.6294 33.2881 34.2471 31.7607 34.2471C31.1393 34.2471 30.589 34.1759 30.1099 34.0337C29.6307 33.8914 29.1403 33.6706 28.6387 33.3711V38.627H26.5273V21.4556H28.6387V22.7695C29.1628 22.2979 29.743 21.9048 30.3794 21.5903C31.0233 21.2684 31.7233 21.1074 32.4795 21.1074C33.917 21.1074 35.0363 21.6764 35.8374 22.8145C36.646 23.9525 37.0503 25.4798 37.0503 27.3965ZM34.8716 27.6323C34.8716 26.2023 34.6432 25.0942 34.1865 24.3081C33.7298 23.5145 32.9886 23.1177 31.9629 23.1177C31.3639 23.1177 30.7837 23.2524 30.2222 23.522C29.6681 23.784 29.1403 24.1247 28.6387 24.5439V31.6528C29.1927 31.9224 29.6644 32.1058 30.0537 32.2031C30.4505 32.3005 30.9035 32.3491 31.4126 32.3491C32.5057 32.3491 33.3555 31.9486 33.9619 31.1475C34.5684 30.3464 34.8716 29.1746 34.8716 27.6323ZM50.7106 34H48.5993V26.8574C48.5993 26.2809 48.5693 25.7456 48.5094 25.2515C48.457 24.7498 48.3522 24.3493 48.195 24.0498C48.0228 23.7354 47.7832 23.5033 47.4762 23.3535C47.1692 23.1963 46.75 23.1177 46.2184 23.1177C45.6943 23.1177 45.1515 23.2599 44.59 23.5444C44.0359 23.8215 43.4931 24.1846 42.9616 24.6338V34H40.8502V16.5254H42.9616V22.8481C43.5905 22.2866 44.2119 21.8561 44.8258 21.5566C45.4398 21.2572 46.0874 21.1074 46.7687 21.1074C48.004 21.1074 48.9699 21.5155 49.6662 22.3315C50.3624 23.1401 50.7106 24.3156 50.7106 25.8579V34ZM65.8084 27.3965C65.8084 29.4854 65.3068 31.1512 64.3035 32.394C63.3077 33.6294 62.0462 34.2471 60.5188 34.2471C59.8974 34.2471 59.3471 34.1759 58.8679 34.0337C58.3888 33.8914 57.8984 33.6706 57.3968 33.3711V38.627H55.2854V21.4556H57.3968V22.7695C57.9208 22.2979 58.5011 21.9048 59.1375 21.5903C59.7814 21.2684 60.4814 21.1074 61.2376 21.1074C62.6751 21.1074 63.7944 21.6764 64.5955 22.8145C65.4041 23.9525 65.8084 25.4798 65.8084 27.3965ZM63.6297 27.6323C63.6297 26.2023 63.4013 25.0942 62.9446 24.3081C62.4879 23.5145 61.7467 23.1177 60.721 23.1177C60.122 23.1177 59.5418 23.2524 58.9803 23.522C58.4262 23.784 57.8984 24.1247 57.3968 24.5439V31.6528C57.9508 31.9224 58.4225 32.1058 58.8118 32.2031C59.2086 32.3005 59.6616 32.3491 60.1707 32.3491C61.2638 32.3491 62.1136 31.9486 62.72 31.1475C63.3264 30.3464 63.6297 29.1746 63.6297 27.6323Z" fill="url(#paint1_linear_269_9)"/>
<defs>
<linearGradient id="paint0_linear_269_9" x1="5.24122e-08" y1="30.875" x2="90.8455" y2="29.8846" gradientUnits="userSpaceOnUse">
<stop stop-color="#307EF2"/>
<stop offset="1" stop-color="#2B44A0"/>
</linearGradient>
<linearGradient id="paint1_linear_269_9" x1="25" y1="25.5" x2="68" y2="25.5" gradientUnits="userSpaceOnUse">
<stop offset="0.46875" stop-color="#307EF2"/>
<stop offset="0.822917" stop-color="#2B44A0"/>
</linearGradient>
</defs>
</svg>
