<svg width="129" height="52" viewBox="0 0 129 52" fill="none" xmlns="http://www.w3.org/2000/svg">
<path d="M2 32C2 15.4315 15.4315 2 32 2H117C122.523 2 127 6.47715 127 12V20C127 36.5685 113.569 50 97 50H12C6.47715 50 2 45.5229 2 40V32Z" stroke="url(#paint0_linear_269_10)" stroke-width="4"/>
<path d="M37.0503 27.3965C37.0503 29.4854 36.5487 31.1512 35.5454 32.394C34.5496 33.6294 33.2881 34.2471 31.7607 34.2471C31.1393 34.2471 30.589 34.1759 30.1099 34.0337C29.6307 33.8914 29.1403 33.6706 28.6387 33.3711V38.627H26.5273V21.4556H28.6387V22.7695C29.1628 22.2979 29.743 21.9048 30.3794 21.5903C31.0233 21.2684 31.7233 21.1074 32.4795 21.1074C33.917 21.1074 35.0363 21.6764 35.8374 22.8145C36.646 23.9525 37.0503 25.4798 37.0503 27.3965ZM34.8716 27.6323C34.8716 26.2023 34.6432 25.0942 34.1865 24.3081C33.7298 23.5145 32.9886 23.1177 31.9629 23.1177C31.3639 23.1177 30.7837 23.2524 30.2222 23.522C29.6681 23.784 29.1403 24.1247 28.6387 24.5439V31.6528C29.1927 31.9224 29.6644 32.1058 30.0537 32.2031C30.4505 32.3005 30.9035 32.3491 31.4126 32.3491C32.5057 32.3491 33.3555 31.9486 33.9619 31.1475C34.5684 30.3464 34.8716 29.1746 34.8716 27.6323ZM50.7106 21.4556L43.9611 38.627H41.7037L43.9498 33.3936L39.3903 21.4556H41.6701L45.0954 30.7432L48.5094 21.4556H50.7106ZM57.7112 34.2471C56.5582 34.2471 55.6598 33.9214 55.0159 33.27C54.372 32.6112 54.0501 31.5742 54.0501 30.1592V23.2075H52.6238V21.4556H54.0501V17.8506H56.1614V21.4556H60.0471V23.2075H56.1614V29.1709C56.1614 29.8073 56.1726 30.2977 56.1951 30.6421C56.2176 30.9865 56.3037 31.3084 56.4534 31.6079C56.5807 31.87 56.7866 32.0684 57.0711 32.2031C57.3556 32.3304 57.7412 32.394 58.2278 32.394C58.5722 32.394 58.9054 32.3454 59.2273 32.248C59.5493 32.1432 59.7814 32.0571 59.9236 31.9897H60.0471V33.8877C59.6503 34 59.246 34.0861 58.8343 34.146C58.43 34.2134 58.0556 34.2471 57.7112 34.2471ZM73.0898 34H70.9784V26.8574C70.9784 26.2809 70.9485 25.7456 70.8886 25.2515C70.8362 24.7498 70.7314 24.3493 70.5741 24.0498C70.4019 23.7354 70.1624 23.5033 69.8554 23.3535C69.5484 23.1963 69.1292 23.1177 68.5976 23.1177C68.0735 23.1177 67.5307 23.2599 66.9692 23.5444C66.4151 23.8215 65.8723 24.1846 65.3407 24.6338V34H63.2294V16.5254H65.3407V22.8481C65.9697 22.2866 66.5911 21.8561 67.205 21.5566C67.8189 21.2572 68.4666 21.1074 69.1479 21.1074C70.3832 21.1074 71.349 21.5155 72.0453 22.3315C72.7416 23.1401 73.0898 24.3156 73.0898 25.8579V34ZM87.9854 27.7334C87.9854 29.8447 87.4763 31.4769 86.4581 32.6299C85.4398 33.7754 84.0847 34.3481 82.3926 34.3481C80.6482 34.3481 79.2743 33.7567 78.2711 32.5737C77.2753 31.3833 76.7774 29.7699 76.7774 27.7334C76.7774 25.637 77.2903 24.0086 78.316 22.8481C79.3492 21.6877 80.7081 21.1074 82.3926 21.1074C84.0847 21.1074 85.4398 21.6877 86.4581 22.8481C87.4763 24.0011 87.9854 25.6296 87.9854 27.7334ZM85.8067 27.7334C85.8067 26.1087 85.511 24.9033 84.9195 24.1172C84.328 23.3236 83.4857 22.9268 82.3926 22.9268C81.292 22.9268 80.4423 23.3236 79.8433 24.1172C79.2518 24.9033 78.9561 26.1087 78.9561 27.7334C78.9561 29.3057 79.2518 30.4998 79.8433 31.3159C80.4423 32.1245 81.292 32.5288 82.3926 32.5288C83.4782 32.5288 84.3168 32.132 84.9083 31.3384C85.5072 30.5373 85.8067 29.3356 85.8067 27.7334ZM101.623 34H99.5119V26.8574C99.5119 26.2809 99.482 25.7456 99.4221 25.2515C99.3697 24.7498 99.2648 24.3493 99.1076 24.0498C98.9354 23.7354 98.6958 23.5033 98.3889 23.3535C98.0819 23.1963 97.6626 23.1177 97.1311 23.1177C96.607 23.1177 96.0642 23.2599 95.5026 23.5444C94.9486 23.8215 94.4058 24.1846 93.8742 24.6338V34H91.7629V21.4556H93.8742V22.8481C94.5031 22.2866 95.1245 21.8561 95.7385 21.5566C96.3524 21.2572 97 21.1074 97.6814 21.1074C98.9167 21.1074 99.8825 21.5155 100.579 22.3315C101.275 23.1401 101.623 24.3156 101.623 25.8579V34Z" fill="url(#paint1_linear_269_10)"/>
<defs>
<linearGradient id="paint0_linear_269_10" x1="7.27007e-08" y1="30.875" x2="125.998" y2="28.9696" gradientUnits="userSpaceOnUse">
<stop stop-color="#307EF2"/>
<stop offset="1" stop-color="#2B44A0"/>
</linearGradient>
<linearGradient id="paint1_linear_269_10" x1="25" y1="25.5" x2="104" y2="25.5" gradientUnits="userSpaceOnUse">
<stop offset="0.46875" stop-color="#307EF2"/>
<stop offset="0.822917" stop-color="#2B44A0"/>
</linearGradient>
</defs>
</svg>
