<svg width="103" height="52" viewBox="0 0 103 52" fill="none" xmlns="http://www.w3.org/2000/svg">
<path d="M2 32C2 15.4315 15.4315 2 32 2H91C96.5229 2 101 6.47715 101 12V20C101 36.5685 87.5685 50 71 50H12C6.47715 50 2 45.5229 2 40V32Z" stroke="url(#paint0_linear_269_7)" stroke-width="4"/>
<path d="M28.9189 34.3032C28.0804 34.3032 27.2943 34.1909 26.5605 33.9663C25.8343 33.7417 25.2316 33.5021 24.7524 33.2476V30.8779H24.8647C25.0444 31.0202 25.2541 31.1774 25.4937 31.3496C25.7407 31.5218 26.0664 31.7015 26.4707 31.8887C26.8301 32.0534 27.2231 32.1994 27.6499 32.3267C28.0841 32.4539 28.5334 32.5176 28.9976 32.5176C29.3345 32.5176 29.6938 32.4801 30.0757 32.4053C30.4575 32.3229 30.742 32.2218 30.9292 32.1021C31.1912 31.9299 31.3784 31.7464 31.4907 31.5518C31.6105 31.3571 31.6704 31.0651 31.6704 30.6758C31.6704 30.1742 31.5319 29.7961 31.2549 29.5415C30.9854 29.2869 30.5024 29.0736 29.8062 28.9014C29.5366 28.834 29.1847 28.7554 28.7505 28.6655C28.3162 28.5757 27.9157 28.4784 27.5488 28.3735C26.5905 28.0965 25.8942 27.6698 25.46 27.0933C25.0257 26.5093 24.8086 25.8055 24.8086 24.9819C24.8086 23.8514 25.2354 22.9305 26.0889 22.2192C26.9424 21.508 28.0767 21.1523 29.4917 21.1523C30.188 21.1523 30.888 21.2384 31.5918 21.4106C32.2956 21.5828 32.887 21.8 33.3662 22.062V24.3193H33.2539C32.7148 23.8926 32.1121 23.5557 31.4458 23.3086C30.7869 23.0615 30.1206 22.938 29.4468 22.938C28.7505 22.938 28.1628 23.084 27.6836 23.376C27.2044 23.668 26.9648 24.1097 26.9648 24.7012C26.9648 25.2253 27.1071 25.6183 27.3916 25.8804C27.6761 26.1349 28.1328 26.3446 28.7617 26.5093C29.0762 26.5916 29.4243 26.674 29.8062 26.7563C30.1955 26.8312 30.6035 26.9211 31.0303 27.0259C31.9587 27.258 32.6549 27.6436 33.1191 28.1826C33.5908 28.7217 33.8267 29.4554 33.8267 30.3838C33.8267 30.9229 33.7181 31.4357 33.501 31.9224C33.2913 32.4015 32.9806 32.8133 32.5688 33.1577C32.1196 33.5321 31.6105 33.8166 31.0415 34.0112C30.48 34.2059 29.7725 34.3032 28.9189 34.3032ZM44.4098 30.9116V27.4302C43.9082 27.4751 43.2718 27.5387 42.5006 27.6211C41.737 27.696 41.1193 27.8045 40.6476 27.9468C40.0861 28.119 39.6219 28.3848 39.255 28.7441C38.8882 29.096 38.7047 29.5902 38.7047 30.2266C38.7047 30.9453 38.9069 31.4881 39.3112 31.855C39.7155 32.2218 40.3069 32.4053 41.0856 32.4053C41.7519 32.4053 42.3546 32.263 42.8937 31.9785C43.4328 31.6865 43.9381 31.3309 44.4098 30.9116ZM44.4098 32.6636C44.2376 32.7909 44.0055 32.9705 43.7135 33.2026C43.429 33.4272 43.152 33.6069 42.8825 33.7417C42.5081 33.9364 42.145 34.0861 41.7931 34.1909C41.4487 34.2957 40.9621 34.3481 40.3331 34.3481C39.8165 34.3481 39.3261 34.2508 38.862 34.0562C38.3978 33.8615 37.9897 33.5882 37.6378 33.2363C37.3009 32.8919 37.0314 32.4689 36.8292 31.9673C36.6271 31.4582 36.526 30.9229 36.526 30.3613C36.526 29.4928 36.7094 28.7554 37.0763 28.1489C37.4432 27.535 38.0234 27.0483 38.817 26.689C39.5208 26.367 40.3519 26.1462 41.3102 26.0264C42.2685 25.8991 43.3017 25.8055 44.4098 25.7456V25.3413C44.4098 24.8472 44.3349 24.4504 44.1852 24.1509C44.0355 23.8439 43.8258 23.6081 43.5563 23.4434C43.2868 23.2712 42.9573 23.1589 42.568 23.1064C42.1787 23.0465 41.7781 23.0166 41.3663 23.0166C40.8797 23.0166 40.3069 23.0915 39.6481 23.2412C38.9892 23.3835 38.3304 23.5931 37.6715 23.8701H37.548V21.7251C37.9373 21.6128 38.4951 21.4893 39.2213 21.3545C39.9476 21.2197 40.6663 21.1523 41.3776 21.1523C42.2386 21.1523 42.9648 21.2197 43.5563 21.3545C44.1478 21.4893 44.6793 21.7326 45.151 22.0845C45.6077 22.4289 45.9484 22.8743 46.173 23.4209C46.3976 23.9674 46.5099 24.6338 46.5099 25.4199V34H44.4098V32.6636ZM54.4876 34.3032C53.649 34.3032 52.8629 34.1909 52.1292 33.9663C51.4029 33.7417 50.8002 33.5021 50.3211 33.2476V30.8779H50.4334C50.6131 31.0202 50.8227 31.1774 51.0623 31.3496C51.3094 31.5218 51.635 31.7015 52.0393 31.8887C52.3987 32.0534 52.7918 32.1994 53.2185 32.3267C53.6528 32.4539 54.102 32.5176 54.5662 32.5176C54.9031 32.5176 55.2625 32.4801 55.6443 32.4053C56.0262 32.3229 56.3107 32.2218 56.4978 32.1021C56.7599 31.9299 56.9471 31.7464 57.0594 31.5518C57.1791 31.3571 57.239 31.0651 57.239 30.6758C57.239 30.1742 57.1005 29.7961 56.8235 29.5415C56.554 29.2869 56.0711 29.0736 55.3748 28.9014C55.1053 28.834 54.7534 28.7554 54.3191 28.6655C53.8849 28.5757 53.4843 28.4784 53.1175 28.3735C52.1591 28.0965 51.4628 27.6698 51.0286 27.0933C50.5943 26.5093 50.3772 25.8055 50.3772 24.9819C50.3772 23.8514 50.804 22.9305 51.6575 22.2192C52.511 21.508 53.6453 21.1523 55.0603 21.1523C55.7566 21.1523 56.4567 21.2384 57.1604 21.4106C57.8642 21.5828 58.4557 21.8 58.9348 22.062V24.3193H58.8225C58.2835 23.8926 57.6808 23.5557 57.0144 23.3086C56.3556 23.0615 55.6892 22.938 55.0154 22.938C54.3191 22.938 53.7314 23.084 53.2522 23.376C52.7731 23.668 52.5335 24.1097 52.5335 24.7012C52.5335 25.2253 52.6757 25.6183 52.9602 25.8804C53.2447 26.1349 53.7014 26.3446 54.3304 26.5093C54.6448 26.5916 54.9929 26.674 55.3748 26.7563C55.7641 26.8312 56.1721 26.9211 56.5989 27.0259C57.5273 27.258 58.2236 27.6436 58.6878 28.1826C59.1595 28.7217 59.3953 29.4554 59.3953 30.3838C59.3953 30.9229 59.2867 31.4357 59.0696 31.9224C58.86 32.4015 58.5493 32.8133 58.1375 33.1577C57.6883 33.5321 57.1791 33.8166 56.6101 34.0112C56.0486 34.2059 55.3411 34.3032 54.4876 34.3032ZM66.3622 34.3032C65.5237 34.3032 64.7376 34.1909 64.0038 33.9663C63.2776 33.7417 62.6749 33.5021 62.1957 33.2476V30.8779H62.308C62.4877 31.0202 62.6974 31.1774 62.9369 31.3496C63.184 31.5218 63.5097 31.7015 63.914 31.8887C64.2734 32.0534 64.6664 32.1994 65.0932 32.3267C65.5274 32.4539 65.9766 32.5176 66.4408 32.5176C66.7778 32.5176 67.1371 32.4801 67.519 32.4053C67.9008 32.3229 68.1853 32.2218 68.3725 32.1021C68.6345 31.9299 68.8217 31.7464 68.934 31.5518C69.0538 31.3571 69.1137 31.0651 69.1137 30.6758C69.1137 30.1742 68.9752 29.7961 68.6982 29.5415C68.4286 29.2869 67.9457 29.0736 67.2494 28.9014C66.9799 28.834 66.628 28.7554 66.1938 28.6655C65.7595 28.5757 65.359 28.4784 64.9921 28.3735C64.0338 28.0965 63.3375 27.6698 62.9032 27.0933C62.469 26.5093 62.2519 25.8055 62.2519 24.9819C62.2519 23.8514 62.6786 22.9305 63.5322 22.2192C64.3857 21.508 65.5199 21.1523 66.935 21.1523C67.6313 21.1523 68.3313 21.2384 69.0351 21.4106C69.7389 21.5828 70.3303 21.8 70.8095 22.062V24.3193H70.6972C70.1581 23.8926 69.5554 23.5557 68.8891 23.3086C68.2302 23.0615 67.5639 22.938 66.8901 22.938C66.1938 22.938 65.606 23.084 65.1269 23.376C64.6477 23.668 64.4081 24.1097 64.4081 24.7012C64.4081 25.2253 64.5504 25.6183 64.8349 25.8804C65.1194 26.1349 65.5761 26.3446 66.205 26.5093C66.5195 26.5916 66.8676 26.674 67.2494 26.7563C67.6388 26.8312 68.0468 26.9211 68.4736 27.0259C69.4019 27.258 70.0982 27.6436 70.5624 28.1826C71.0341 28.7217 71.2699 29.4554 71.2699 30.3838C71.2699 30.9229 71.1614 31.4357 70.9443 31.9224C70.7346 32.4015 70.4239 32.8133 70.0121 33.1577C69.5629 33.5321 69.0538 33.8166 68.4848 34.0112C67.9233 34.2059 67.2157 34.3032 66.3622 34.3032Z" fill="url(#paint1_linear_269_7)"/>
<defs>
<linearGradient id="paint0_linear_269_7" x1="5.80479e-08" y1="30.875" x2="100.611" y2="29.6601" gradientUnits="userSpaceOnUse">
<stop stop-color="#307EF2"/>
<stop offset="1" stop-color="#2B44A0"/>
</linearGradient>
<linearGradient id="paint1_linear_269_7" x1="24" y1="25.5" x2="78" y2="25.5" gradientUnits="userSpaceOnUse">
<stop offset="0.46875" stop-color="#307EF2"/>
<stop offset="0.822917" stop-color="#2B44A0"/>
</linearGradient>
</defs>
</svg>
