<svg width="129" height="52" viewBox="0 0 129 52" fill="none" xmlns="http://www.w3.org/2000/svg">
<path d="M2 32C2 15.4315 15.4315 2 32 2H117C122.523 2 127 6.47715 127 12V20C127 36.5685 113.569 50 97 50H12C6.47715 50 2 45.5229 2 40V32Z" stroke="url(#paint0_linear_269_14)" stroke-width="4"/>
<path d="M29.9189 34.3032C29.0804 34.3032 28.2943 34.1909 27.5605 33.9663C26.8343 33.7417 26.2316 33.5021 25.7524 33.2476V30.8779H25.8647C26.0444 31.0202 26.2541 31.1774 26.4937 31.3496C26.7407 31.5218 27.0664 31.7015 27.4707 31.8887C27.8301 32.0534 28.2231 32.1994 28.6499 32.3267C29.0841 32.4539 29.5334 32.5176 29.9976 32.5176C30.3345 32.5176 30.6938 32.4801 31.0757 32.4053C31.4575 32.3229 31.742 32.2218 31.9292 32.1021C32.1912 31.9299 32.3784 31.7464 32.4907 31.5518C32.6105 31.3571 32.6704 31.0651 32.6704 30.6758C32.6704 30.1742 32.5319 29.7961 32.2549 29.5415C31.9854 29.2869 31.5024 29.0736 30.8062 28.9014C30.5366 28.834 30.1847 28.7554 29.7505 28.6655C29.3162 28.5757 28.9157 28.4784 28.5488 28.3735C27.5905 28.0965 26.8942 27.6698 26.46 27.0933C26.0257 26.5093 25.8086 25.8055 25.8086 24.9819C25.8086 23.8514 26.2354 22.9305 27.0889 22.2192C27.9424 21.508 29.0767 21.1523 30.4917 21.1523C31.188 21.1523 31.888 21.2384 32.5918 21.4106C33.2956 21.5828 33.887 21.8 34.3662 22.062V24.3193H34.2539C33.7148 23.8926 33.1121 23.5557 32.4458 23.3086C31.7869 23.0615 31.1206 22.938 30.4468 22.938C29.7505 22.938 29.1628 23.084 28.6836 23.376C28.2044 23.668 27.9648 24.1097 27.9648 24.7012C27.9648 25.2253 28.1071 25.6183 28.3916 25.8804C28.6761 26.1349 29.1328 26.3446 29.7617 26.5093C30.0762 26.5916 30.4243 26.674 30.8062 26.7563C31.1955 26.8312 31.6035 26.9211 32.0303 27.0259C32.9587 27.258 33.6549 27.6436 34.1191 28.1826C34.5908 28.7217 34.8267 29.4554 34.8267 30.3838C34.8267 30.9229 34.7181 31.4357 34.501 31.9224C34.2913 32.4015 33.9806 32.8133 33.5688 33.1577C33.1196 33.5321 32.6105 33.8166 32.0415 34.0112C31.48 34.2059 30.7725 34.3032 29.9189 34.3032ZM48.8014 34H46.0275L41.3444 27.9468L40.5133 28.7554V34H38.402V16.5254H40.5133V26.7563L45.4772 21.4556H48.1051L42.9503 26.7002L48.8014 34ZM56.9138 34.292C54.9148 34.292 53.3613 33.7305 52.2532 32.6074C51.1526 31.4769 50.6023 29.8747 50.6023 27.8008C50.6023 25.7568 51.1376 24.1322 52.2083 22.9268C53.2789 21.7139 54.679 21.1074 56.4085 21.1074C57.1871 21.1074 57.8759 21.2197 58.4749 21.4443C59.0738 21.6689 59.5979 22.0208 60.0471 22.5C60.4964 22.9792 60.8408 23.5669 61.0804 24.2632C61.3199 24.952 61.4397 25.798 61.4397 26.8013V27.9468H52.7473C52.7473 29.4067 53.1142 30.5223 53.8479 31.2935C54.5817 32.0646 55.5961 32.4502 56.8914 32.4502C57.3556 32.4502 57.8085 32.3978 58.2503 32.293C58.6995 32.1882 59.1038 32.0534 59.4632 31.8887C59.845 31.7165 60.1669 31.5518 60.429 31.3945C60.691 31.2298 60.9082 31.0763 61.0804 30.9341H61.2039V33.2363C60.9568 33.3337 60.6498 33.4572 60.283 33.6069C59.9161 33.7492 59.5867 33.8615 59.2947 33.9438C58.8829 34.0562 58.5086 34.1423 58.1717 34.2021C57.8422 34.262 57.423 34.292 56.9138 34.292ZM59.3846 26.3296C59.3696 25.7606 59.3022 25.2702 59.1824 24.8584C59.0626 24.4466 58.8904 24.0985 58.6658 23.814C58.4187 23.4995 58.1005 23.2599 57.7112 23.0952C57.3294 22.9305 56.854 22.8481 56.2849 22.8481C55.7234 22.8481 55.2443 22.9342 54.8474 23.1064C54.4581 23.2712 54.1025 23.5145 53.7805 23.8364C53.4661 24.1659 53.2265 24.5327 53.0618 24.937C52.8971 25.3338 52.7923 25.798 52.7473 26.3296H59.3846ZM68.9794 34.2471C67.8264 34.2471 66.928 33.9214 66.2841 33.27C65.6402 32.6112 65.3183 31.5742 65.3183 30.1592V23.2075H63.892V21.4556H65.3183V17.8506H67.4296V21.4556H71.3154V23.2075H67.4296V29.1709C67.4296 29.8073 67.4408 30.2977 67.4633 30.6421C67.4858 30.9865 67.5719 31.3084 67.7216 31.6079C67.8489 31.87 68.0548 32.0684 68.3393 32.2031C68.6238 32.3304 69.0094 32.394 69.496 32.394C69.8404 32.394 70.1736 32.3454 70.4955 32.248C70.8175 32.1432 71.0496 32.0571 71.1918 31.9897H71.3154V33.8877C70.9185 34 70.5142 34.0861 70.1025 34.146C69.6982 34.2134 69.3238 34.2471 68.9794 34.2471ZM79.4839 34.2808C78.6229 34.2808 77.8331 34.1497 77.1143 33.8877C76.3956 33.6182 75.7779 33.2139 75.2613 32.6748C74.7447 32.1357 74.3441 31.4582 74.0596 30.6421C73.7751 29.8185 73.6329 28.8527 73.6329 27.7446C73.6329 26.644 73.7789 25.6932 74.0709 24.8921C74.3703 24.091 74.7671 23.4172 75.2613 22.8706C75.7554 22.3241 76.3694 21.9048 77.1031 21.6128C77.8443 21.3133 78.6379 21.1636 79.4839 21.1636C80.1727 21.1636 80.8353 21.2609 81.4717 21.4556C82.1156 21.6502 82.6884 21.8748 83.19 22.1294V24.499H83.0665C82.9167 24.3717 82.7221 24.2257 82.4825 24.061C82.2504 23.8963 81.9659 23.7279 81.629 23.5557C81.337 23.4059 80.9926 23.2749 80.5958 23.1626C80.199 23.0503 79.8171 22.9941 79.4503 22.9941C78.3572 22.9941 77.4774 23.4097 76.8111 24.2407C76.1522 25.0643 75.8228 26.2323 75.8228 27.7446C75.8228 29.2271 76.141 30.3838 76.7774 31.2148C77.4213 32.0384 78.3122 32.4502 79.4503 32.4502C80.1391 32.4502 80.7942 32.3079 81.4156 32.0234C82.037 31.7389 82.5873 31.3721 83.0665 30.9229H83.19V33.2925C82.9804 33.3898 82.7183 33.5096 82.4039 33.6519C82.0894 33.7866 81.8049 33.8877 81.5504 33.9551C81.191 34.0599 80.869 34.1385 80.5845 34.1909C80.3 34.2508 79.9332 34.2808 79.4839 34.2808ZM96.592 34H94.4807V26.8574C94.4807 26.2809 94.4507 25.7456 94.3908 25.2515C94.3384 24.7498 94.2336 24.3493 94.0764 24.0498C93.9042 23.7354 93.6646 23.5033 93.3576 23.3535C93.0507 23.1963 92.6314 23.1177 92.0998 23.1177C91.5757 23.1177 91.0329 23.2599 90.4714 23.5444C89.9173 23.8215 89.3745 24.1846 88.843 24.6338V34H86.7316V16.5254H88.843V22.8481C89.4719 22.2866 90.0933 21.8561 90.7072 21.5566C91.3212 21.2572 91.9688 21.1074 92.6501 21.1074C93.8854 21.1074 94.8513 21.5155 95.5476 22.3315C96.2438 23.1401 96.592 24.3156 96.592 25.8579V34Z" fill="url(#paint1_linear_269_14)"/>
<defs>
<linearGradient id="paint0_linear_269_14" x1="7.27007e-08" y1="30.875" x2="125.998" y2="28.9696" gradientUnits="userSpaceOnUse">
<stop stop-color="#307EF2"/>
<stop offset="1" stop-color="#2B44A0"/>
</linearGradient>
<linearGradient id="paint1_linear_269_14" x1="25" y1="25.5" x2="104" y2="25.5" gradientUnits="userSpaceOnUse">
<stop offset="0.46875" stop-color="#307EF2"/>
<stop offset="0.822917" stop-color="#2B44A0"/>
</linearGradient>
</defs>
</svg>
