<svg width="129" height="52" viewBox="0 0 129 52" fill="none" xmlns="http://www.w3.org/2000/svg">
<path d="M2 32C2 15.4315 15.4315 2 32 2H117C122.523 2 127 6.47715 127 12V20C127 36.5685 113.569 50 97 50H12C6.47715 50 2 45.5229 2 40V32Z" stroke="url(#paint0_linear_269_11)" stroke-width="4"/>
<path d="M41.0259 34H38.8022V19.5913L34.4448 29.3955H33.0972L28.7734 19.5913V34H26.6958V17.2778H29.728L33.9058 26.5879L37.9375 17.2778H41.0259V34ZM55.7194 21.4556L48.9699 38.627H46.7125L48.9586 33.3936L44.3991 21.4556H46.6788L50.1041 30.7432L53.5182 21.4556H55.7194ZM63.7532 34.3032C62.5403 34.3032 61.5071 34.1797 60.6536 33.9326C59.8076 33.6781 59.0102 33.3674 58.2615 33.0005V30.2153H58.4187C59.1525 30.9041 59.9835 31.4395 60.9119 31.8213C61.8403 32.1956 62.735 32.3828 63.596 32.3828C64.8238 32.3828 65.7522 32.1283 66.3811 31.6191C67.01 31.1025 67.3245 30.425 67.3245 29.5864C67.3245 28.9201 67.1598 28.3773 66.8304 27.958C66.5009 27.5387 65.9768 27.228 65.2581 27.0259C64.7415 26.8761 64.2698 26.7526 63.843 26.6553C63.4163 26.5579 62.881 26.4269 62.2371 26.2622C61.6606 26.1125 61.144 25.9215 60.6873 25.6895C60.2306 25.4574 59.8263 25.1541 59.4744 24.7798C59.13 24.4129 58.8605 23.9824 58.6658 23.4883C58.4786 22.9867 58.385 22.4102 58.385 21.7588C58.385 20.4036 58.9129 19.2694 59.9685 18.356C61.0242 17.4351 62.3719 16.9746 64.0115 16.9746C64.9474 16.9746 65.8308 17.0682 66.6619 17.2554C67.5004 17.4425 68.2753 17.7083 68.9866 18.0527V20.7144H68.8181C68.2866 20.2277 67.6053 19.8047 66.7742 19.4453C65.9431 19.0785 65.0709 18.895 64.1575 18.895C63.1243 18.895 62.2895 19.1383 61.6531 19.625C61.0167 20.1042 60.6985 20.7368 60.6985 21.5229C60.6985 22.2342 60.8857 22.7995 61.26 23.2188C61.6344 23.638 62.1772 23.945 62.8885 24.1396C63.3601 24.2669 63.9366 24.4129 64.618 24.5776C65.2993 24.7349 65.8645 24.8809 66.3138 25.0156C67.4667 25.3675 68.309 25.8991 68.8406 26.6104C69.3722 27.3216 69.638 28.1976 69.638 29.2383C69.638 29.8896 69.5032 30.5335 69.2337 31.1699C68.9716 31.8063 68.601 32.3454 68.1219 32.7871C67.5828 33.2738 66.9726 33.6481 66.2913 33.9102C65.6175 34.1722 64.7714 34.3032 63.7532 34.3032ZM87.4198 38.0879C87.0155 38.1927 86.5888 38.2713 86.1396 38.3237C85.6978 38.3761 85.2561 38.4023 84.8144 38.4023C83.5641 38.4023 82.5458 38.0505 81.7597 37.3467C80.981 36.6429 80.5543 35.6396 80.4794 34.3369C80.3821 34.3369 80.2885 34.3369 80.1987 34.3369C80.1088 34.3369 80.0302 34.3369 79.9628 34.3369C78.8323 34.3369 77.8103 34.146 76.8969 33.7642C75.991 33.3748 75.2161 32.8096 74.5722 32.0684C73.9283 31.3271 73.4342 30.4137 73.0898 29.3281C72.7454 28.2425 72.5732 27.0146 72.5732 25.6445C72.5732 24.237 72.7454 23.0016 73.0898 21.9385C73.4417 20.8753 73.9395 19.9619 74.5834 19.1982C75.2273 18.457 76.0022 17.8955 76.9081 17.5137C77.8215 17.1243 78.8398 16.9297 79.9628 16.9297C81.1008 16.9297 82.1266 17.1281 83.04 17.5249C83.9534 17.9217 84.7245 18.4795 85.3534 19.1982C85.9898 19.932 86.484 20.8416 86.8359 21.9272C87.1877 23.0129 87.3637 24.252 87.3637 25.6445C87.3637 27.8083 86.9407 29.5939 86.0947 31.0015C85.2486 32.409 84.0919 33.3636 82.6244 33.8652C82.6619 34.2845 82.733 34.6589 82.8378 34.9883C82.9501 35.3252 83.0924 35.591 83.2646 35.7856C83.4667 36.0177 83.71 36.1862 83.9946 36.291C84.2865 36.4033 84.6834 36.4595 85.185 36.4595C85.4845 36.4595 85.8363 36.4108 86.2406 36.3135C86.6449 36.2236 86.9369 36.1413 87.1166 36.0664H87.4198V38.0879ZM85.0502 25.6445C85.0502 24.5365 84.9304 23.5557 84.6908 22.7021C84.4513 21.8486 84.1143 21.1411 83.6801 20.5796C83.2384 20.0031 82.703 19.5726 82.0741 19.2881C81.4527 18.9961 80.7527 18.8501 79.974 18.8501C79.1655 18.8501 78.4579 18.9924 77.8515 19.2769C77.2525 19.5539 76.721 19.9881 76.2568 20.5796C75.815 21.1486 75.4744 21.8636 75.2348 22.7246C75.0027 23.5856 74.8866 24.5589 74.8866 25.6445C74.8866 27.8382 75.3471 29.519 76.268 30.687C77.1889 31.855 78.4242 32.439 79.974 32.439C81.5238 32.439 82.7555 31.855 83.6689 30.687C84.5898 29.519 85.0502 27.8382 85.0502 25.6445ZM101.114 34H91.4219V17.2778H93.6456V32.0234H101.114V34Z" fill="url(#paint1_linear_269_11)"/>
<defs>
<linearGradient id="paint0_linear_269_11" x1="7.27007e-08" y1="30.875" x2="125.998" y2="28.9696" gradientUnits="userSpaceOnUse">
<stop stop-color="#307EF2"/>
<stop offset="1" stop-color="#2B44A0"/>
</linearGradient>
<linearGradient id="paint1_linear_269_11" x1="25" y1="25.5" x2="104" y2="25.5" gradientUnits="userSpaceOnUse">
<stop offset="0.46875" stop-color="#307EF2"/>
<stop offset="0.822917" stop-color="#2B44A0"/>
</linearGradient>
</defs>
</svg>
