<svg width="103" height="52" viewBox="0 0 103 52" fill="none" xmlns="http://www.w3.org/2000/svg">
<path d="M2 32C2 15.4315 15.4315 2 32 2H91C96.5229 2 101 6.47715 101 12V20C101 36.5685 87.5685 50 71 50H12C6.47715 50 2 45.5229 2 40V32Z" stroke="url(#paint0_linear_269_12)" stroke-width="4"/>
<path d="M30.3232 34.2471C29.1702 34.2471 28.2718 33.9214 27.6279 33.27C26.984 32.6112 26.6621 31.5742 26.6621 30.1592V23.2075H25.2358V21.4556H26.6621V17.8506H28.7734V21.4556H32.6592V23.2075H28.7734V29.1709C28.7734 29.8073 28.7847 30.2977 28.8071 30.6421C28.8296 30.9865 28.9157 31.3084 29.0654 31.6079C29.1927 31.87 29.3986 32.0684 29.6831 32.2031C29.9676 32.3304 30.3532 32.394 30.8398 32.394C31.1842 32.394 31.5174 32.3454 31.8394 32.248C32.1613 32.1432 32.3934 32.0571 32.5356 31.9897H32.6592V33.8877C32.2624 34 31.8581 34.0861 31.4463 34.146C31.042 34.2134 30.6676 34.2471 30.3232 34.2471ZM37.9977 34H35.8864V21.4556H37.9977V34ZM38.1437 19.3555H35.7404V17.1655H38.1437V19.3555ZM44.8636 34H42.7522V16.5254H44.8636V34ZM59.2314 34H57.12V32.7197C56.7906 32.9967 56.5061 33.2251 56.2665 33.4048C56.0269 33.5845 55.7462 33.7492 55.4242 33.8989C55.1248 34.0412 54.814 34.1497 54.4921 34.2246C54.1702 34.307 53.7958 34.3481 53.3691 34.3481C52.6877 34.3481 52.0551 34.2059 51.4711 33.9214C50.8946 33.6369 50.4042 33.2214 49.9999 32.6748C49.5881 32.1208 49.2699 31.4395 49.0453 30.6309C48.8207 29.8148 48.7084 28.8789 48.7084 27.8232C48.7084 26.7227 48.8507 25.7718 49.1352 24.9707C49.4197 24.1621 49.8127 23.4583 50.3144 22.8594C50.7711 22.3128 51.3214 21.8861 51.9653 21.5791C52.6166 21.2646 53.2979 21.1074 54.0092 21.1074C54.6381 21.1074 55.1847 21.1785 55.6488 21.3208C56.113 21.4556 56.6034 21.6689 57.12 21.9609V16.5254H59.2314V34ZM57.12 30.9453V23.7129C56.596 23.4583 56.1243 23.2824 55.705 23.1851C55.2932 23.0877 54.844 23.0391 54.3573 23.0391C53.2717 23.0391 52.422 23.4471 51.808 24.2632C51.1941 25.0718 50.8871 26.2435 50.8871 27.7783C50.8871 29.2533 51.123 30.3838 51.5946 31.1699C52.0663 31.9486 52.8225 32.3379 53.8632 32.3379C54.4172 32.3379 54.975 32.2144 55.5365 31.9673C56.0981 31.7127 56.6259 31.3721 57.12 30.9453ZM70.9039 30.9116V27.4302C70.4022 27.4751 69.7658 27.5387 68.9947 27.6211C68.231 27.696 67.6133 27.8045 67.1417 27.9468C66.5801 28.119 66.1159 28.3848 65.7491 28.7441C65.3822 29.096 65.1988 29.5902 65.1988 30.2266C65.1988 30.9453 65.4009 31.4881 65.8052 31.855C66.2095 32.2218 66.801 32.4053 67.5796 32.4053C68.246 32.4053 68.8487 32.263 69.3878 31.9785C69.9268 31.6865 70.4322 31.3309 70.9039 30.9116ZM70.9039 32.6636C70.7317 32.7909 70.4996 32.9705 70.2076 33.2026C69.9231 33.4272 69.6461 33.6069 69.3765 33.7417C69.0022 33.9364 68.6391 34.0861 68.2872 34.1909C67.9428 34.2957 67.4561 34.3481 66.8272 34.3481C66.3106 34.3481 65.8202 34.2508 65.356 34.0562C64.8918 33.8615 64.4838 33.5882 64.1319 33.2363C63.795 32.8919 63.5254 32.4689 63.3233 31.9673C63.1212 31.4582 63.0201 30.9229 63.0201 30.3613C63.0201 29.4928 63.2035 28.7554 63.5704 28.1489C63.9372 27.535 64.5175 27.0483 65.3111 26.689C66.0149 26.367 66.8459 26.1462 67.8043 26.0264C68.7626 25.8991 69.7958 25.8055 70.9039 25.7456V25.3413C70.9039 24.8472 70.829 24.4504 70.6793 24.1509C70.5295 23.8439 70.3199 23.6081 70.0504 23.4434C69.7808 23.2712 69.4514 23.1589 69.0621 23.1064C68.6727 23.0465 68.2722 23.0166 67.8604 23.0166C67.3738 23.0166 66.801 23.0915 66.1421 23.2412C65.4833 23.3835 64.8244 23.5931 64.1656 23.8701H64.042V21.7251C64.4314 21.6128 64.9892 21.4893 65.7154 21.3545C66.4416 21.2197 67.1604 21.1523 67.8716 21.1523C68.7326 21.1523 69.4589 21.2197 70.0504 21.3545C70.6418 21.4893 71.1734 21.7326 71.6451 22.0845C72.1018 22.4289 72.4424 22.8743 72.667 23.4209C72.8917 23.9674 73.004 24.6338 73.004 25.4199V34H70.9039V32.6636Z" fill="url(#paint1_linear_269_12)"/>
<defs>
<linearGradient id="paint0_linear_269_12" x1="5.80479e-08" y1="30.875" x2="100.611" y2="29.6601" gradientUnits="userSpaceOnUse">
<stop stop-color="#307EF2"/>
<stop offset="1" stop-color="#2B44A0"/>
</linearGradient>
<linearGradient id="paint1_linear_269_12" x1="25" y1="25.5" x2="79" y2="25.5" gradientUnits="userSpaceOnUse">
<stop offset="0.46875" stop-color="#307EF2"/>
<stop offset="0.822917" stop-color="#2B44A0"/>
</linearGradient>
</defs>
</svg>
