<svg width="250" height="52" viewBox="0 0 250 52" fill="none" xmlns="http://www.w3.org/2000/svg">
<path d="M32 2H238C243.523 2 248 6.47715 248 12V20C248 36.5685 234.569 50 218 50H12C6.47715 50 2 45.5229 2 40V32C2 15.4315 15.4315 2 32 2Z" stroke="url(#paint0_linear_269_15)" stroke-width="4"/>
<path d="M37.3647 34H35.1411V27.3516H32.6143L27.6167 34H24.9438L30.312 27.0146C29.189 26.6328 28.3167 26.0451 27.6953 25.2515C27.0814 24.4504 26.7744 23.3797 26.7744 22.0396C26.7744 21.186 26.9504 20.4523 27.3022 19.8384C27.6616 19.217 28.1333 18.7004 28.7173 18.2886C29.2489 17.9142 29.8703 17.6522 30.5815 17.5024C31.2928 17.3527 32.0789 17.2778 32.9399 17.2778H37.3647V34ZM35.1411 25.4985V19.187H32.8276C32.1838 19.187 31.6672 19.2282 31.2778 19.3105C30.8885 19.3929 30.5329 19.5426 30.2109 19.7598C29.8665 19.9919 29.597 20.3175 29.4023 20.7368C29.2077 21.1561 29.1104 21.6165 29.1104 22.1182C29.1104 22.7171 29.1777 23.215 29.3125 23.6118C29.4548 24.0086 29.6794 24.3605 29.9863 24.6675C30.3232 24.9969 30.735 25.2178 31.2217 25.3301C31.7083 25.4424 32.2736 25.4985 32.9175 25.4985H35.1411ZM52.1032 34H49.9918V28.3511H44.3092V34H42.1979V21.4556H44.3092V26.5317H49.9918V21.4556H52.1032V34ZM67.5266 37.0098H65.5613V33.9663H57.2957V37.0098H55.3304V32.2031H56.1614C56.8727 31.0352 57.4529 29.5116 57.9021 27.6323C58.3588 25.7456 58.5872 23.6867 58.5872 21.4556H66.2801V32.2031H67.5266V37.0098ZM64.1687 32.2031V23.23H60.575C60.4776 25.1017 60.2193 26.8125 59.8001 28.3623C59.3883 29.9046 58.8679 31.1849 58.239 32.2031H64.1687ZM76.6723 34.292C74.6733 34.292 73.1197 33.7305 72.0116 32.6074C70.9111 31.4769 70.3608 29.8747 70.3608 27.8008C70.3608 25.7568 70.8961 24.1322 71.9667 22.9268C73.0374 21.7139 74.4374 21.1074 76.1669 21.1074C76.9456 21.1074 77.6344 21.2197 78.2333 21.4443C78.8323 21.6689 79.3564 22.0208 79.8056 22.5C80.2548 22.9792 80.5992 23.5669 80.8388 24.2632C81.0784 24.952 81.1982 25.798 81.1982 26.8013V27.9468H72.5058C72.5058 29.4067 72.8726 30.5223 73.6064 31.2935C74.3401 32.0646 75.3546 32.4502 76.6498 32.4502C77.114 32.4502 77.567 32.3978 78.0087 32.293C78.4579 32.1882 78.8622 32.0534 79.2216 31.8887C79.6034 31.7165 79.9254 31.5518 80.1874 31.3945C80.4495 31.2298 80.6666 31.0763 80.8388 30.9341H80.9623V33.2363C80.7153 33.3337 80.4083 33.4572 80.0414 33.6069C79.6746 33.7492 79.3451 33.8615 79.0531 33.9438C78.6414 34.0562 78.267 34.1423 77.9301 34.2021C77.6007 34.262 77.1814 34.292 76.6723 34.292ZM79.143 26.3296C79.128 25.7606 79.0606 25.2702 78.9408 24.8584C78.8211 24.4466 78.6488 24.0985 78.4242 23.814C78.1772 23.4995 77.859 23.2599 77.4697 23.0952C77.0878 22.9305 76.6124 22.8481 76.0434 22.8481C75.4819 22.8481 75.0027 22.9342 74.6059 23.1064C74.2166 23.2712 73.8609 23.5145 73.539 23.8364C73.2245 24.1659 72.9849 24.5327 72.8202 24.937C72.6555 25.3338 72.5507 25.798 72.5058 26.3296H79.143ZM95.0381 34H92.4102L88.1089 28.2163H87.0533V34H84.942V21.4556H87.0533V26.9136C87.5998 26.9061 88.064 26.7938 88.4459 26.5767C88.8352 26.3521 89.1646 25.9215 89.4341 25.2852C89.5165 25.098 89.6063 24.8809 89.7037 24.6338C89.8085 24.3867 89.8908 24.1696 89.9507 23.9824C90.2802 23.0615 90.7369 22.4102 91.3209 22.0283C91.9048 21.6465 92.6648 21.4556 93.6006 21.4556H94.1734V23.2749H93.6905C93.099 23.2749 92.6535 23.3984 92.3541 23.6455C92.0621 23.8851 91.815 24.3268 91.6129 24.9707C91.4032 25.6221 91.1561 26.1312 90.8716 26.498C90.5871 26.8574 90.2727 27.1344 89.9283 27.3291L95.0381 34ZM102.993 34.2808C102.132 34.2808 101.342 34.1497 100.624 33.8877C99.905 33.6182 99.2873 33.2139 98.7707 32.6748C98.2541 32.1357 97.8536 31.4582 97.569 30.6421C97.2845 29.8185 97.1423 28.8527 97.1423 27.7446C97.1423 26.644 97.2883 25.6932 97.5803 24.8921C97.8798 24.091 98.2766 23.4172 98.7707 22.8706C99.2648 22.3241 99.8788 21.9048 100.613 21.6128C101.354 21.3133 102.147 21.1636 102.993 21.1636C103.682 21.1636 104.345 21.2609 104.981 21.4556C105.625 21.6502 106.198 21.8748 106.699 22.1294V24.499H106.576C106.426 24.3717 106.231 24.2257 105.992 24.061C105.76 23.8963 105.475 23.7279 105.138 23.5557C104.846 23.4059 104.502 23.2749 104.105 23.1626C103.708 23.0503 103.327 22.9941 102.96 22.9941C101.867 22.9941 100.987 23.4097 100.321 24.2407C99.6617 25.0643 99.3322 26.2323 99.3322 27.7446C99.3322 29.2271 99.6504 30.3838 100.287 31.2148C100.931 32.0384 101.822 32.4502 102.96 32.4502C103.648 32.4502 104.304 32.3079 104.925 32.0234C105.546 31.7389 106.097 31.3721 106.576 30.9229H106.699V33.2925C106.49 33.3898 106.228 33.5096 105.913 33.6519C105.599 33.7866 105.314 33.8877 105.06 33.9551C104.7 34.0599 104.378 34.1385 104.094 34.1909C103.809 34.2508 103.443 34.2808 102.993 34.2808ZM113.532 34H110.848V30.7993H113.532V34ZM142.11 34H139.886V19.5913L135.529 29.3955H134.181L129.858 19.5913V34H127.78V17.2778H130.812L134.99 26.5879L139.022 17.2778H142.11V34ZM152.39 34.292C150.391 34.292 148.837 33.7305 147.729 32.6074C146.629 31.4769 146.078 29.8747 146.078 27.8008C146.078 25.7568 146.614 24.1322 147.684 22.9268C148.755 21.7139 150.155 21.1074 151.885 21.1074C152.663 21.1074 153.352 21.2197 153.951 21.4443C154.55 21.6689 155.074 22.0208 155.523 22.5C155.972 22.9792 156.317 23.5669 156.556 24.2632C156.796 24.952 156.916 25.798 156.916 26.8013V27.9468H148.223C148.223 29.4067 148.59 30.5223 149.324 31.2935C150.058 32.0646 151.072 32.4502 152.367 32.4502C152.832 32.4502 153.285 32.3978 153.726 32.293C154.176 32.1882 154.58 32.0534 154.939 31.8887C155.321 31.7165 155.643 31.5518 155.905 31.3945C156.167 31.2298 156.384 31.0763 156.556 30.9341H156.68V33.2363C156.433 33.3337 156.126 33.4572 155.759 33.6069C155.392 33.7492 155.063 33.8615 154.771 33.9438C154.359 34.0562 153.985 34.1423 153.648 34.2021C153.318 34.262 152.899 34.292 152.39 34.292ZM154.861 26.3296C154.846 25.7606 154.778 25.2702 154.658 24.8584C154.539 24.4466 154.366 24.0985 154.142 23.814C153.895 23.4995 153.577 23.2599 153.187 23.0952C152.805 22.9305 152.33 22.8481 151.761 22.8481C151.199 22.8481 150.72 22.9342 150.323 23.1064C149.934 23.2712 149.579 23.5145 149.257 23.8364C148.942 24.1659 148.703 24.5327 148.538 24.937C148.373 25.3338 148.268 25.798 148.223 26.3296H154.861ZM169.824 23.3086H165.556V34H163.445V23.3086H159.177V21.4556H169.824V23.3086ZM183.529 27.3965C183.529 29.4854 183.027 31.1512 182.024 32.394C181.028 33.6294 179.767 34.2471 178.239 34.2471C177.618 34.2471 177.068 34.1759 176.588 34.0337C176.109 33.8914 175.619 33.6706 175.117 33.3711V38.627H173.006V21.4556H175.117V22.7695C175.641 22.2979 176.222 21.9048 176.858 21.5903C177.502 21.2684 178.202 21.1074 178.958 21.1074C180.396 21.1074 181.515 21.6764 182.316 22.8145C183.125 23.9525 183.529 25.4798 183.529 27.3965ZM181.35 27.6323C181.35 26.2023 181.122 25.0942 180.665 24.3081C180.208 23.5145 179.467 23.1177 178.441 23.1177C177.842 23.1177 177.262 23.2524 176.701 23.522C176.147 23.784 175.619 24.1247 175.117 24.5439V31.6528C175.671 31.9224 176.143 32.1058 176.532 32.2031C176.929 32.3005 177.382 32.3491 177.891 32.3491C178.984 32.3491 179.834 31.9486 180.44 31.1475C181.047 30.3464 181.35 29.1746 181.35 27.6323ZM197.234 34H195.145V24.645L189.238 34H187.329V21.4556H189.418V30.6646L195.258 21.4556H197.234V34ZM211.995 34H209.367L205.066 28.2163H204.01V34H201.899V21.4556H204.01V26.9136C204.557 26.9061 205.021 26.7938 205.403 26.5767C205.792 26.3521 206.121 25.9215 206.391 25.2852C206.473 25.098 206.563 24.8809 206.66 24.6338C206.765 24.3867 206.848 24.1696 206.908 23.9824C207.237 23.0615 207.694 22.4102 208.278 22.0283C208.862 21.6465 209.622 21.4556 210.557 21.4556H211.13V23.2749H210.647C210.056 23.2749 209.61 23.3984 209.311 23.6455C209.019 23.8851 208.772 24.3268 208.57 24.9707C208.36 25.6221 208.113 26.1312 207.828 26.498C207.544 26.8574 207.229 27.1344 206.885 27.3291L211.995 34ZM221.972 30.9116V27.4302C221.47 27.4751 220.834 27.5387 220.062 27.6211C219.299 27.696 218.681 27.8045 218.209 27.9468C217.648 28.119 217.184 28.3848 216.817 28.7441C216.45 29.096 216.267 29.5902 216.267 30.2266C216.267 30.9453 216.469 31.4881 216.873 31.855C217.277 32.2218 217.869 32.4053 218.647 32.4053C219.314 32.4053 219.916 32.263 220.456 31.9785C220.995 31.6865 221.5 31.3309 221.972 30.9116ZM221.972 32.6636C221.799 32.7909 221.567 32.9705 221.275 33.2026C220.991 33.4272 220.714 33.6069 220.444 33.7417C220.07 33.9364 219.707 34.0861 219.355 34.1909C219.011 34.2957 218.524 34.3481 217.895 34.3481C217.378 34.3481 216.888 34.2508 216.424 34.0562C215.96 33.8615 215.552 33.5882 215.2 33.2363C214.863 32.8919 214.593 32.4689 214.391 31.9673C214.189 31.4582 214.088 30.9229 214.088 30.3613C214.088 29.4928 214.271 28.7554 214.638 28.1489C215.005 27.535 215.585 27.0483 216.379 26.689C217.083 26.367 217.914 26.1462 218.872 26.0264C219.83 25.8991 220.864 25.8055 221.972 25.7456V25.3413C221.972 24.8472 221.897 24.4504 221.747 24.1509C221.597 23.8439 221.388 23.6081 221.118 23.4434C220.849 23.2712 220.519 23.1589 220.13 23.1064C219.741 23.0465 219.34 23.0166 218.928 23.0166C218.442 23.0166 217.869 23.0915 217.21 23.2412C216.551 23.3835 215.892 23.5931 215.233 23.8701H215.11V21.7251C215.499 21.6128 216.057 21.4893 216.783 21.3545C217.509 21.2197 218.228 21.1523 218.939 21.1523C219.8 21.1523 220.527 21.2197 221.118 21.3545C221.71 21.4893 222.241 21.7326 222.713 22.0845C223.17 22.4289 223.51 22.8743 223.735 23.4209C223.959 23.9674 224.072 24.6338 224.072 25.4199V34H221.972V32.6636Z" fill="url(#paint1_linear_269_15)"/>
<defs>
<linearGradient id="paint0_linear_269_15" x1="1.40893e-07" y1="30.875" x2="244.028" y2="23.7231" gradientUnits="userSpaceOnUse">
<stop stop-color="#307EF2"/>
<stop offset="1" stop-color="#2B44A0"/>
</linearGradient>
<linearGradient id="paint1_linear_269_15" x1="25" y1="25.5" x2="226" y2="25.5" gradientUnits="userSpaceOnUse">
<stop offset="0.46875" stop-color="#307EF2"/>
<stop offset="0.822917" stop-color="#2B44A0"/>
</linearGradient>
</defs>
</svg>
